<svg width="163" height="201" viewBox="0 0 163 201" fill="none" xmlns="http://www.w3.org/2000/svg">
    <path opacity="0.45" d="M89.1693 196.046C72.1282 201.11 53.9836 201.88 36.4856 198.233C16.988 194.169 -0.881943 184.794 -14.9948 171.227C-29.1074 157.66 -38.8675 140.475 -43.1144 121.721C-46.9218 104.908 -46.1545 87.4681 -40.9363 71.0786C-40.0154 68.1865 -36.8328 66.726 -33.9378 67.7649C-30.9555 68.8352 -29.4321 72.1648 -30.3712 75.2395C-34.7466 89.5638 -35.3268 104.752 -32.0083 119.407C-28.2226 136.124 -19.5234 151.438 -6.95059 163.525C5.62201 175.611 21.5377 183.959 38.898 187.577C54.3373 190.795 70.3417 190.152 85.396 185.752C88.2794 184.909 91.3721 186.317 92.447 189.081C93.5662 191.959 92.0921 195.178 89.1693 196.046Z" fill="#FFFDFD" stroke="#F0F0F0"/>
    <g opacity="0.55">
    <mask id="path-2-inside-1_73_3" fill="white">
    <path d="M146.784 100.211C146.784 147.262 107.124 185.405 58.1997 185.405C9.27568 185.405 -30.3851 147.262 -30.3851 100.211C-30.3851 53.1597 9.27568 15.0171 58.1997 15.0171C107.124 15.0171 146.784 53.1597 146.784 100.211ZM-22.9536 100.211C-22.9536 143.315 13.38 178.258 58.1997 178.258C103.019 178.258 139.353 143.315 139.353 100.211C139.353 57.1069 103.019 22.1641 58.1997 22.1641C13.38 22.1641 -22.9536 57.1069 -22.9536 100.211Z"/>
    </mask>
    <path d="M146.784 100.211C146.784 147.262 107.124 185.405 58.1997 185.405C9.27568 185.405 -30.3851 147.262 -30.3851 100.211C-30.3851 53.1597 9.27568 15.0171 58.1997 15.0171C107.124 15.0171 146.784 53.1597 146.784 100.211ZM-22.9536 100.211C-22.9536 143.315 13.38 178.258 58.1997 178.258C103.019 178.258 139.353 143.315 139.353 100.211C139.353 57.1069 103.019 22.1641 58.1997 22.1641C13.38 22.1641 -22.9536 57.1069 -22.9536 100.211Z" fill="#EAEAEA" stroke="#F0F0F0" stroke-width="2" mask="url(#path-2-inside-1_73_3)"/>
    </g>
    <g opacity="0.55">
    <mask id="path-3-inside-2_73_3" fill="white">
    <path d="M118.109 157.827C119.599 159.26 119.603 161.651 118.052 163.018C108.138 171.757 96.2698 178.222 83.3414 181.902C69.1784 185.933 54.192 186.495 39.7457 183.536C25.2994 180.577 11.8518 174.191 0.626353 164.958C-10.5991 155.726 -19.2461 143.941 -24.5278 130.675C-29.8095 117.41 -31.5583 103.084 -29.6151 89.0029C-27.6719 74.9214 -22.0984 61.5307 -13.4017 50.0491C-4.70492 38.5675 6.83898 29.3594 20.1798 23.2628C32.4386 17.6605 45.857 14.8489 59.3964 15.0249C61.376 15.0506 62.8931 16.7482 62.782 18.7247V18.7247C62.6715 20.6896 60.993 22.1874 59.0251 22.1681C46.7135 22.0477 34.5179 24.6232 23.3693 29.7181C11.1477 35.3033 0.572219 43.7388 -7.39494 54.2572C-15.3621 64.7756 -20.468 77.043 -22.2482 89.9432C-24.0284 102.843 -22.4263 115.967 -17.5877 128.12C-12.749 140.273 -4.82749 151.069 5.45625 159.527C15.74 167.984 28.0595 173.835 41.2939 176.546C54.5283 179.257 68.2574 178.742 81.2322 175.049C93.0652 171.68 103.928 165.766 113.006 157.771C114.475 156.478 116.699 156.471 118.109 157.827V157.827Z"/>
    </mask>
    <path d="M118.109 157.827C119.599 159.26 119.603 161.651 118.052 163.018C108.138 171.757 96.2698 178.222 83.3414 181.902C69.1784 185.933 54.192 186.495 39.7457 183.536C25.2994 180.577 11.8518 174.191 0.626353 164.958C-10.5991 155.726 -19.2461 143.941 -24.5278 130.675C-29.8095 117.41 -31.5583 103.084 -29.6151 89.0029C-27.6719 74.9214 -22.0984 61.5307 -13.4017 50.0491C-4.70492 38.5675 6.83898 29.3594 20.1798 23.2628C32.4386 17.6605 45.857 14.8489 59.3964 15.0249C61.376 15.0506 62.8931 16.7482 62.782 18.7247V18.7247C62.6715 20.6896 60.993 22.1874 59.0251 22.1681C46.7135 22.0477 34.5179 24.6232 23.3693 29.7181C11.1477 35.3033 0.572219 43.7388 -7.39494 54.2572C-15.3621 64.7756 -20.468 77.043 -22.2482 89.9432C-24.0284 102.843 -22.4263 115.967 -17.5877 128.12C-12.749 140.273 -4.82749 151.069 5.45625 159.527C15.74 167.984 28.0595 173.835 41.2939 176.546C54.5283 179.257 68.2574 178.742 81.2322 175.049C93.0652 171.68 103.928 165.766 113.006 157.771C114.475 156.478 116.699 156.471 118.109 157.827V157.827Z" fill="#E9E9E9" stroke="white" stroke-width="2" mask="url(#path-3-inside-2_73_3)"/>
    </g>
    <g opacity="0.65">
    <mask id="path-4-inside-3_73_3" fill="white">
    <path d="M163 100.5C163 156.005 116.214 201 58.5 201C0.786244 201 -46 156.005 -46 100.5C-46 44.9954 0.786244 0 58.5 0C116.214 0 163 44.9954 163 100.5ZM-33.6342 100.5C-33.6342 149.437 7.61569 189.108 58.5 189.108C109.384 189.108 150.634 149.437 150.634 100.5C150.634 51.5634 109.384 11.8925 58.5 11.8925C7.61569 11.8925 -33.6342 51.5634 -33.6342 100.5Z"/>
    </mask>
    <path d="M163 100.5C163 156.005 116.214 201 58.5 201C0.786244 201 -46 156.005 -46 100.5C-46 44.9954 0.786244 0 58.5 0C116.214 0 163 44.9954 163 100.5ZM-33.6342 100.5C-33.6342 149.437 7.61569 189.108 58.5 189.108C109.384 189.108 150.634 149.437 150.634 100.5C150.634 51.5634 109.384 11.8925 58.5 11.8925C7.61569 11.8925 -33.6342 51.5634 -33.6342 100.5Z" fill="#EAEAEA" stroke="#EFEDED" stroke-width="2" mask="url(#path-4-inside-3_73_3)"/>
    </g>
</svg>