<svg width="37" height="77" viewBox="0 0 37 77" fill="none" xmlns="http://www.w3.org/2000/svg">
<path fill-rule="evenodd" clip-rule="evenodd" d="M34.577 3.55088C34.6335 3.50541 34.7795 3.39573 35.0326 3.24353C35.998 2.66283 36.3355 2.83004 35.484 3.535C34.6324 4.23997 34.1618 4.76545 33.6919 6.34042C33.222 7.91538 30.2879 17.5674 29.2408 19.2808C28.8726 19.8832 29.1186 20.6536 28.8646 21.4188C28.396 22.8301 27.4595 24.3666 26.5315 25.8084C26.1169 26.4525 26.3515 27.0055 26.1939 27.5172C25.8074 28.772 25.4653 29.779 24.9055 31.2732C24.4107 32.5942 23.9356 34.5308 24.1575 36.3619C24.289 37.4469 25.0157 38.4714 25.1738 39.3729C25.3182 40.1955 25.6029 41.6037 25.3989 43.3369C25.0022 46.709 23.7872 50.9767 23.3165 52.2096C22.6039 54.0762 21.2481 56.8022 21.227 59.7977C21.2059 62.7933 21.1996 64.0973 20.3129 66.194C19.4262 68.2907 18.1882 70.67 18.1399 72.385C18.0916 74.1001 17.8778 74.4086 18.5028 74.9637C19.1279 75.5186 19.1597 75.1573 19.1597 75.9722C19.1597 76.7872 18.221 76.8657 17.8765 76.9138C17.5322 76.9619 15.7096 77.3081 15.7212 76.1612C15.7328 75.0142 15.6533 74.1199 15.762 73.3932C15.8708 72.6664 15.8139 72.7049 16.2246 71.83C16.6352 70.955 16.495 71.8448 16.5524 70.0438C16.5871 68.9553 16.4312 66.4139 16.6698 64.3799C16.8259 63.0482 17.1987 62.4587 17.1645 61.9563C17.078 60.6867 17.2895 59.7516 17.2013 59.0726C17.1131 58.3936 16.473 59.1564 16.5245 58.227C16.576 57.2976 16.3416 57.5677 16.6625 57.0846C16.868 56.7755 16.9004 56.8832 16.8699 56.7676C16.8529 56.7027 16.8158 56.5671 16.7786 56.2473C16.675 55.3584 16.4706 55.3014 16.0601 54.5541C15.6497 53.8069 15.9739 52.2138 13.194 52.2569C10.4141 52.3 2.21085 52.1052 2.21085 52.1052C2.21085 52.1052 -2.21158 50.0446 1.45312 47.474C5.11782 44.9033 11.3335 42.3294 12.7025 40.9967C14.0715 39.664 15.2444 36.8824 14.996 35.4451C14.7476 34.0079 13.9504 30.74 14.0463 29.6624C14.1423 28.5847 12.5093 23.5815 11.577 21.7843C10.6377 19.9738 7.31655 10.0386 7.11759 8.79877C7.04229 8.32979 7.13712 7.7359 6.8641 6.9459C6.31152 5.34693 4.82288 3.35612 4.65826 3.03159C4.39388 2.51036 4.69658 1.73254 5.05906 2.34283C5.55721 3.18148 6.24791 3.68291 5.62752 2.37468C5.11002 1.28351 4.71241 0.187768 5.70636 1.14146C5.88451 1.31241 6.07078 1.45284 6.0982 1.60753C6.20239 2.19603 6.40279 2.10259 6.10725 1.32353C5.71204 0.281619 5.52369 -0.706007 6.72824 0.689152C7.85635 1.99572 8.12474 5.03712 8.55452 3.84361C8.98426 2.65009 9.62769 2.42334 9.45961 3.35903C9.29153 4.29477 8.59492 6.90454 9.95504 9.57898C11.3151 12.2534 13.0249 19.0832 14.996 21.1221C16.9671 23.1609 18.1323 24.3068 17.998 21.9735C17.9916 21.8631 18.0591 21.7077 17.9687 21.6358C16.3006 20.3098 16.0172 15.4068 18.126 13.9154C18.3655 13.746 18.0882 13.0178 18.446 12.5462C18.7066 12.2027 19.5737 12.0609 19.9002 12.0488C20.0723 12.0424 20.8878 12.2297 21.0782 12.5037C21.3526 12.8985 21.0125 13.436 21.3317 13.5209C22.7791 13.9061 24.7096 18.6265 21.5684 21.5905C21.4085 21.7414 21.7415 23.2888 22.2762 23.5494C22.7668 23.7885 23.429 22.777 24.0011 22.1909C24.5049 21.6749 25.2368 21.0798 25.6923 20.4544C25.8791 20.1981 28.1983 15.2598 28.5909 14.6088C28.9834 13.9578 31.9914 7.35796 31.6955 6.57599C31.3995 5.79407 30.402 4.0411 30.1864 3.83973C29.9707 3.63837 29.9939 2.58703 30.6841 3.44032C31.3743 4.29366 31.5625 4.98681 32.1125 4.23392C32.6625 3.48104 35.2588 0.988431 35.2588 0.988431C35.2588 0.988431 37.0255 0.0567558 35.8423 1.92154C34.9692 3.29754 34.4181 3.67885 34.577 3.55088ZM17.0285 47.1428C17.0285 47.1428 18.7813 49.0287 17.9458 49.3363C17.8678 49.365 16.6611 49.7288 15.3314 49.6663C13.5878 49.5842 11.6347 49.0638 11.757 49.056C12.2711 49.023 16.8089 47.3593 17.0285 47.1428Z" fill="black"/>
</svg>
