<svg width="66" height="140" viewBox="0 0 66 140" fill="none" xmlns="http://www.w3.org/2000/svg">
<path fill-rule="evenodd" clip-rule="evenodd" d="M62.8674 6.45615C62.97 6.37348 63.2355 6.17405 63.6956 5.89732C65.4509 4.84152 66.0646 5.14552 64.5163 6.42728C62.9681 7.70904 62.1123 8.66446 61.2579 11.528C60.4036 14.3916 55.069 31.9407 53.1651 35.0561C52.4957 36.1513 52.9429 37.552 52.481 38.9432C51.6292 41.5092 49.9263 44.303 48.2391 46.9244C47.4854 48.0955 47.9118 49.1009 47.6252 50.0313C46.9225 52.3128 46.3005 54.1436 45.2828 56.8604C44.3831 59.2621 43.5192 62.7832 43.9228 66.1126C44.1619 68.0853 45.483 69.9479 45.7706 71.5871C46.033 73.0828 46.5507 75.6432 46.1798 78.7943C45.4585 84.9255 43.2494 92.6849 42.3936 94.9266C41.098 98.3204 38.6329 103.277 38.5945 108.723C38.5561 114.17 38.5447 116.54 36.9325 120.353C35.3203 124.165 33.0694 128.491 32.9816 131.609C32.8938 134.727 32.5052 135.288 33.6415 136.298C34.7779 137.307 34.8357 136.65 34.8357 138.131C34.8357 139.613 33.129 139.756 32.5028 139.843C31.8767 139.931 28.5629 140.56 28.584 138.475C28.6052 136.389 28.4605 134.763 28.6582 133.442C28.856 132.121 28.7526 132.191 29.4992 130.6C30.2459 129.009 29.9908 130.627 30.0952 127.352C30.1583 125.373 29.875 120.753 30.3087 117.054C30.5926 114.633 31.2704 113.561 31.2082 112.648C31.051 110.339 31.4355 108.639 31.2751 107.405C31.1148 106.17 29.951 107.557 30.0445 105.867C30.1382 104.177 29.7119 104.668 30.2955 103.79C30.669 103.228 30.728 103.424 30.6726 103.214C30.6416 103.096 30.5743 102.849 30.5065 102.268C30.3182 100.652 29.9466 100.548 29.2003 99.1893C28.4539 97.8307 29.0434 94.9341 23.989 95.0125C18.9348 95.0908 4.01973 94.7367 4.01973 94.7367C4.01973 94.7367 -4.02106 90.9903 2.64204 86.3163C9.30513 81.6424 20.6064 76.9626 23.0955 74.5395C25.5845 72.1164 27.7171 67.0589 27.2655 64.4457C26.8138 61.8326 25.3644 55.891 25.5388 53.9316C25.7132 51.9722 22.7441 42.8754 21.049 39.6078C19.3413 36.3161 13.3028 18.252 12.9411 15.9978C12.8042 15.1451 12.9766 14.0653 12.4802 12.6289C11.4755 9.72169 8.76888 6.10204 8.46957 5.51198C7.98888 4.56428 8.53924 3.15008 9.19829 4.25969C10.104 5.78451 11.3598 6.6962 10.2318 4.3176C9.29095 2.33365 8.56802 0.341397 10.3752 2.07539C10.6991 2.3862 11.0378 2.64152 11.0876 2.92279C11.2771 3.99278 11.6414 3.82289 11.1041 2.40642C10.3855 0.512034 10.0431 -1.28365 12.2332 1.253C14.2843 3.62859 14.7723 9.15841 15.5537 6.98838C16.335 4.81835 17.5049 4.40607 17.1993 6.10732C16.8937 7.80867 15.6271 12.5537 18.1001 17.4163C20.5729 22.279 23.6817 34.6967 27.2655 38.4038C30.8492 42.1108 32.9679 44.1941 32.7235 39.9518C32.712 39.7511 32.8347 39.4685 32.6703 39.3378C29.6374 36.927 29.1222 28.0124 32.9564 25.3008C33.3918 24.9928 32.8876 23.6687 33.5382 22.8113C34.0119 22.1868 35.5885 21.929 36.1821 21.907C36.495 21.8953 37.9777 22.2359 38.324 22.7341C38.8229 23.4518 38.2046 24.4291 38.7849 24.5835C41.4166 25.2839 44.9265 33.8663 39.2153 39.2554C38.9246 39.5297 39.53 42.3433 40.5022 42.8171C41.3943 43.2519 42.5982 41.4126 43.6384 40.3472C44.5544 39.4089 45.8851 38.3269 46.7133 37.1898C47.0528 36.7238 51.2697 27.7451 51.9834 26.5615C52.6971 25.3779 58.1661 13.3781 57.6281 11.9563C57.0901 10.5347 55.2764 7.34745 54.8843 6.98133C54.4922 6.61521 54.5343 4.7037 55.7893 6.25513C57.0443 7.80665 57.3863 9.06692 58.3864 7.69804C59.3864 6.32916 64.107 1.79715 64.107 1.79715C64.107 1.79715 67.319 0.103192 65.1678 3.4937C63.5804 5.99552 62.5783 6.68882 62.8674 6.45615ZM30.9609 85.7142C30.9609 85.7142 34.1477 89.1431 32.6287 89.7024C32.4869 89.7546 30.2929 90.4161 27.8754 90.3023C24.7052 90.1531 21.1539 89.2069 21.3764 89.1926C22.3111 89.1328 30.5616 86.1079 30.9609 85.7142Z" fill="black"/>
</svg>
