<?xml version="1.0" encoding="UTF-8" standalone="no"?><!DOCTYPE svg PUBLIC "-//W3C//DTD SVG 1.1//EN" "http://www.w3.org/Graphics/SVG/1.1/DTD/svg11.dtd"><svg width="100%" height="100%" viewBox="0 0 790 1673" version="1.1" xmlns="http://www.w3.org/2000/svg" xmlns:xlink="http://www.w3.org/1999/xlink" xml:space="preserve" xmlns:serif="http://www.serif.com/" style="fill-rule:evenodd;clip-rule:evenodd;stroke-linecap:round;stroke-linejoin:round;stroke-miterlimit:1.5;"><path id="Arbre" d="M751.093,79.003c1.223,-0.985 4.386,-3.361 9.868,-6.658c20.913,-12.579 28.224,-8.957 9.778,6.314c-18.446,15.271 -28.642,26.654 -38.821,60.771c-10.178,34.117 -73.736,243.199 -96.419,280.316c-7.975,13.049 -2.647,29.737 -8.15,46.312c-10.149,30.572 -30.437,63.857 -50.539,95.089c-8.98,13.952 -3.899,25.931 -7.314,37.016c-8.372,27.182 -15.783,48.994 -27.908,81.363c-10.719,28.614 -21.011,70.565 -16.203,110.231c2.849,23.504 18.589,45.695 22.015,65.225c3.127,17.819 9.294,48.324 4.876,85.867c-8.594,73.048 -34.914,165.494 -45.11,192.202c-15.436,40.434 -44.805,99.484 -45.263,164.374c-0.457,64.891 -0.593,93.137 -19.801,138.556c-19.208,45.419 -46.025,96.959 -47.071,134.111c-1.047,37.151 -5.677,43.835 7.862,55.858c13.539,12.022 14.228,4.195 14.228,21.848c-0,17.653 -20.334,19.354 -27.795,20.397c-7.46,1.042 -46.941,8.541 -46.689,-16.304c0.252,-24.846 -1.472,-44.218 0.884,-59.961c2.356,-15.743 1.125,-14.909 10.02,-33.862c8.896,-18.953 5.857,0.322 7.101,-38.693c0.751,-23.578 -2.624,-78.63 2.543,-122.691c3.383,-28.848 11.458,-41.618 10.717,-52.5c-1.873,-27.503 2.708,-47.758 0.797,-62.467c-1.91,-14.709 -15.776,1.815 -14.661,-18.318c1.116,-20.133 -3.963,-14.282 2.99,-24.745c4.45,-6.697 5.153,-4.363 4.493,-6.867c-0.37,-1.407 -1.172,-4.344 -1.979,-11.272c-2.244,-19.255 -6.671,-20.49 -15.563,-36.677c-8.892,-16.187 -1.869,-50.697 -62.087,-49.763c-60.217,0.933 -237.917,-3.286 -237.917,-3.286c0,0 -95.799,-44.636 -16.414,-100.322c79.385,-55.686 214.03,-111.441 243.685,-140.31c29.655,-28.869 55.062,-89.125 49.682,-120.259c-5.381,-31.133 -22.65,-101.922 -20.572,-125.266c2.078,-23.345 -33.296,-131.725 -53.492,-170.656c-20.346,-39.218 -92.289,-254.436 -96.599,-281.293c-1.631,-10.159 0.423,-23.024 -5.491,-40.137c-11.97,-34.637 -44.217,-77.762 -47.783,-84.792c-5.727,-11.291 0.83,-28.14 8.682,-14.92c10.791,18.167 25.753,29.029 12.314,0.69c-11.21,-23.637 -19.823,-47.373 1.708,-26.714c3.859,3.703 7.894,6.745 8.488,10.096c2.257,12.748 6.598,10.724 0.196,-6.152c-8.561,-22.57 -12.641,-43.964 13.452,-13.742c24.437,28.303 30.251,94.186 39.561,68.332c9.309,-25.854 23.247,-30.766 19.606,-10.497c-3.641,20.27 -18.731,76.803 10.732,134.737c29.462,57.934 66.5,205.88 109.198,250.047c42.697,44.166 67.939,68.987 65.028,18.444c-0.138,-2.392 1.324,-5.759 -0.634,-7.316c-36.135,-28.723 -42.273,-134.932 3.408,-167.239c5.188,-3.669 -0.819,-19.444 6.932,-29.66c5.644,-7.44 24.427,-10.512 31.5,-10.774c3.728,-0.139 21.393,3.919 25.519,9.854c5.944,8.551 -1.423,20.195 5.491,22.035c31.354,8.344 73.172,110.596 5.128,174.802c-3.464,3.269 3.749,36.79 15.332,42.435c10.628,5.18 24.972,-16.733 37.365,-29.427c10.913,-11.179 26.767,-24.07 36.635,-37.617c4.045,-5.552 54.285,-112.526 62.788,-126.627c8.503,-14.102 73.662,-157.069 67.252,-174.008c-6.41,-16.938 -28.019,-54.911 -32.69,-59.273c-4.671,-4.362 -4.17,-27.136 10.782,-8.652c14.952,18.485 19.027,33.5 30.942,17.191c11.915,-16.309 68.156,-70.304 68.156,-70.304c-0,-0 38.269,-20.182 12.639,20.213c-18.912,29.807 -30.852,38.067 -27.408,35.295Zm-380.138,944.29c-0,-0 37.969,40.853 19.871,47.516c-1.69,0.622 -27.829,8.503 -56.632,7.148c-37.77,-1.778 -80.08,-13.051 -77.429,-13.221c11.136,-0.713 109.433,-36.752 114.19,-41.443Z" style="stroke:#000;stroke-width:4.17px;"/></svg>