<?xml version="1.0" encoding="UTF-8" standalone="no"?><!DOCTYPE svg PUBLIC "-//W3C//DTD SVG 1.1//EN" "http://www.w3.org/Graphics/SVG/1.1/DTD/svg11.dtd"><svg width="100%" height="100%" viewBox="0 0 2029 1607" version="1.1" xmlns="http://www.w3.org/2000/svg" xmlns:xlink="http://www.w3.org/1999/xlink" xml:space="preserve" xmlns:serif="http://www.serif.com/" style="fill-rule:evenodd;clip-rule:evenodd;stroke-linecap:round;stroke-linejoin:round;stroke-miterlimit:1.5;"><path id="Arc" d="M344.27,802.347l36.653,45.316c65.426,-45.539 159.413,-72.298 261.52,-115.891c91.384,-39.015 188.609,-94.986 288.475,-133.551l354.012,-304.135c-22.681,-75.38 -41.698,-148.516 -1.773,-185.544c14.1,-31.318 18.037,-63.293 28.956,-80.574c30.149,-47.717 55.85,-30.564 54,60.645c24.397,19.595 24.551,68.955 60.779,58.279c12.505,-3.686 36.755,2.705 26.975,7.732c-10.428,5.359 -16.803,35.89 -0.558,32.21c23.031,-5.216 23.96,28.783 45.342,27.641c17.714,-0.946 5.484,27.172 22.865,34.786c37.762,16.54 -0.901,39.402 4.274,47.392c26.138,85.55 237.547,326.277 492.261,603.275c-0,-0 22.361,36.388 -5.836,95.906c-26.618,56.185 -204.509,259.571 -456.905,428.79c-80.932,54.26 -175.397,90.245 -267.34,135.969c-29.164,32.871 -75.517,42.746 -131.73,39.432c-109.381,7.612 -191.661,7.153 -225.322,-7.786l-284.889,-5.117l-145.498,-131.66c-83.098,-38.432 -143.806,-109.724 -146.278,-219.415c-1.113,-49.343 -2.576,-130.204 -31.998,-182.515c-28.671,-50.975 -75.342,-81.554 -97.934,-128.539c-27.274,5.78 -62.579,47.099 -86.386,37.405c-23.074,-9.395 -34.748,-69.364 -54.959,-91.534c-11.426,-11.054 -44.235,4.512 -49.521,-11.059c-7.862,-23.166 15.823,-73.659 17.23,-103.644c-12.275,-28.391 -31.242,-51.089 -39.547,-80.121c-19.289,-67.435 -8.767,-116.445 41.305,-150.681c40.633,-27.782 84.966,-52.936 138.056,-61.161c46.15,-7.149 142.284,33.907 144.084,29.649c3.227,-7.638 14.012,-68.398 79.184,-47.785c34.924,11.046 83.169,90.291 67.121,139.739c-10.601,32.663 -67.187,17.083 -62.694,26.38c20.404,39.994 12.319,84.353 6.086,117.363c-11.843,62.723 -50.011,98.436 -80.01,72.803l-12.999,-16.071c4.063,6.856 8.436,12.173 12.999,16.071Zm459.326,381.861c-37.71,-53.502 -138.023,-232.111 -136.351,-245.302c3.84,-30.296 56.08,-65.3 111.997,-100.77c58.028,-36.81 135.105,-68.483 198.11,-110.795c118.256,-79.417 210.637,-163.361 281.751,-203.676c104.98,-49.744 186.118,-31.008 176.492,38.865c24.51,75.232 64.721,93.015 82.947,151.8c38.412,123.887 95.931,225.584 164.511,257.503l-333.515,196.73c-10.652,-1.695 -139.471,-23.132 -248.307,22.151c-71.009,29.544 -115.892,115.533 -170.313,118.069c-29.16,1.359 -83.234,-62.026 -127.322,-124.575Z" style="stroke:#000;stroke-width:4.17px;"/></svg>