<svg width="98" height="77" viewBox="0 0 98 77" fill="none" xmlns="http://www.w3.org/2000/svg">
<path fill-rule="evenodd" clip-rule="evenodd" d="M16.439 38.4456L18.1999 40.6226C21.343 38.4349 25.8583 37.1493 30.7636 35.0551C35.1538 33.1807 39.8246 30.4918 44.6223 28.6391L61.6294 14.0281C60.5398 10.4068 59.6262 6.89326 61.5442 5.1144C62.2216 3.60984 62.4108 2.07373 62.9353 1.24353C64.3837 -1.04885 65.6184 -0.2248 65.5295 4.15698C66.7016 5.09835 66.709 7.46966 68.4494 6.95677C69.0502 6.77969 70.2152 7.08672 69.7453 7.32823C69.2444 7.58568 68.9381 9.05242 69.7185 8.87563C70.825 8.62505 70.8696 10.2584 71.8968 10.2035C72.7478 10.1581 72.1603 11.5089 72.9953 11.8747C74.8094 12.6693 72.952 13.7676 73.2006 14.1515C74.4563 18.2614 84.6126 29.8262 96.8494 43.1335C96.8494 43.1335 97.9236 44.8816 96.569 47.7409C95.2902 50.4401 86.7442 60.211 74.6188 68.3405C70.7307 70.9472 66.1925 72.6759 61.7755 74.8726C60.3744 76.4517 58.1475 76.9261 55.447 76.7669C50.1922 77.1326 46.2394 77.1106 44.6223 76.3929L30.9359 76.1471L23.946 69.822C19.9539 67.9756 17.0374 64.5507 16.9186 59.281C16.8652 56.9105 16.7949 53.0259 15.3814 50.5128C14.004 48.0639 11.7619 46.5948 10.6765 44.3376C9.36627 44.6153 7.67018 46.6003 6.52646 46.1346C5.41796 45.6833 4.85713 42.8023 3.88617 41.7372C3.33725 41.2062 1.76107 41.954 1.50712 41.2059C1.12942 40.093 2.26728 37.6673 2.33487 36.2268C1.74517 34.8628 0.833971 33.7724 0.434989 32.3776C-0.491677 29.138 0.0138123 26.7835 2.41933 25.1388C4.37138 23.8041 6.50119 22.5957 9.05169 22.2005C11.2688 21.8571 15.8872 23.8294 15.9737 23.6249C16.1287 23.2579 16.6468 20.339 19.7777 21.3292C21.4555 21.8599 23.7733 25.6669 23.0023 28.0425C22.493 29.6116 19.7746 28.8632 19.9904 29.3098C20.9707 31.2311 20.5822 33.3622 20.2828 34.948C19.7139 37.9613 17.8802 39.677 16.439 38.4456L15.8145 37.6735C16.0097 38.0029 16.2198 38.2583 16.439 38.4456ZM38.5056 56.7906C36.6939 54.2203 31.8748 45.6397 31.9551 45.006C32.1396 43.5506 34.6493 41.8689 37.3356 40.1649C40.1233 38.3965 43.8262 36.8749 46.853 34.8422C52.5342 31.0269 56.9723 26.9942 60.3886 25.0574C65.432 22.6676 69.33 23.5677 68.8675 26.9245C70.045 30.5387 71.9768 31.393 72.8524 34.2171C74.6977 40.1688 77.461 45.0545 80.7557 46.5879L64.7332 56.039C64.2215 55.9576 58.0329 54.9277 52.8043 57.1032C49.3929 58.5225 47.2367 62.6535 44.6223 62.7753C43.2214 62.8406 40.6236 59.7955 38.5056 56.7906Z" fill="black"/>
</svg>
