<?xml version="1.0" encoding="UTF-8" standalone="no"?><!DOCTYPE svg PUBLIC "-//W3C//DTD SVG 1.1//EN" "http://www.w3.org/Graphics/SVG/1.1/DTD/svg11.dtd"><svg width="100%" height="100%" viewBox="0 0 2029 1607" version="1.1" xmlns="http://www.w3.org/2000/svg" xmlns:xlink="http://www.w3.org/1999/xlink" xml:space="preserve" xmlns:serif="http://www.serif.com/" style="fill-rule:evenodd;clip-rule:evenodd;stroke-linecap:round;stroke-linejoin:round;stroke-miterlimit:1.5;"><path id="Chat" d="M1976.78,2295.37c-89.547,-5.782 -140.494,-38.984 -113.657,-45.53c96.188,-23.46 160.006,-7.743 173.44,-90.777c62.864,-27.322 80.034,3.586 94.56,37.863c55.979,-5.554 131.033,-2.793 195.07,-35.875c102.88,-53.147 171.668,-36.12 263.29,-18.03c-98.789,-335.182 -238.85,-695.043 174.218,-571.473l212.982,-21.723c93.131,-37.229 193.087,-43.226 297.175,-30.311c-90.97,-14.496 -144.604,-21.914 -135.744,-61.956c32.697,-15.308 75.344,2.402 105.959,-20.147c125.62,-92.525 288.159,-170.902 313.579,-76.511c20.961,25.68 18.239,60.508 11.051,97.063c42.048,61.071 41.926,114.621 7.477,162.049l-70.678,52.323c-15.801,-4.268 -25.075,5.629 -61.814,50.015c-38.725,-14.674 -63.833,-23.3 -82.819,-2.254c-20.343,22.55 -47.347,-24.063 -42.305,-69.466l-48.151,9.973c-0,0 -50.056,490.215 -56.718,554.367c-5.494,52.912 122.147,41.974 150.502,53.881c23.177,9.732 -18.535,9.359 -18.535,9.359l-147.266,-0.073c-25.771,-10.382 -39.847,-27.097 -34.47,-54.345l-7.509,-462.727c-46.709,57.664 -101.173,80.508 -171.907,30.286c-51.752,2.533 -100.54,20.587 -150.448,-0.004c-54.662,-22.553 -88.435,-22.231 -110.686,-9.478c13.134,72.875 7.004,108.261 7.36,174.301c0.622,115.427 -7.85,249.306 -66.296,301.521c-43.819,39.149 -105.683,32.179 -197.099,27.382c-162.959,-15.473 -326.391,-15.007 -490.561,10.297Z" style="stroke:#000;stroke-width:4.17px;"/><path id="Warior-2" serif:id="Warior 2" d="M1183.29,1642.17c23.548,-48.872 84.347,-70.72 133.579,-47.551c8.698,4.093 36.676,22.339 38.724,33.683c3.886,21.522 -1.493,197.07 -1.82,201.037l-33.481,0.433l-0.766,15.563l28.53,20.505l205.058,0.041l312.171,-14.551c65.997,-13.798 124.74,-23.713 119.364,0.684l-51.416,10.868l-25.472,28.857l-99.033,-1.762c-18.771,-4.578 -53.528,-10.169 -58.743,3.178c-1.751,4.482 -301.387,41.672 -299.926,48.223l-10.712,73.766l-25.923,27.917l-3.254,163.068l-13.937,8.169l-0.424,34.712c130.197,52.689 248.664,106.251 339.487,161.874l0.389,102.755l-7.186,282.391c54.117,38.605 99.124,55.523 139.054,60.353c4.006,5.894 4.404,10.302 1.195,13.226l-155.99,1.004c-1.219,4.616 -10.091,2.498 -14.319,0.281c-11.322,-5.937 -9.033,-11.231 -10.021,-21.346c-3.892,-39.864 -8.386,-56.072 -17.528,-100.192c-18.37,-88.657 -22.632,-87.881 -28.925,-174.544c-1.458,-20.085 -2.113,-40.229 -2.406,-60.365c-0.279,-19.155 0.207,-38.317 0.693,-57.468c-121.222,4.037 -228.022,0.452 -330.327,-60.668c-112.734,76.567 -229.033,158.753 -327.713,213.161c-25.459,27.418 -55.158,50.541 -86.642,70.605c-26.309,16.765 -33.326,19.385 -57.146,35.818c-38.478,26.543 -103.273,104.329 -85.097,142.7c6.773,14.3 -5.71,28.437 -11.878,28.095c-27.124,-1.502 -63.713,9.753 -70.263,0l-2.193,-44.725c71.021,-101.058 149.384,-200.547 266.663,-291.726l110.015,-120.356l155.789,-222.086c19.717,-93.499 16.695,-182.852 -73.102,-256.385l-432.308,1.982c-5.155,5.07 -14.738,7.828 -26.173,9.618c-29.369,3.666 -58.146,4.328 -86.275,1.69c6.204,-8.353 14.178,-15.542 34.537,-14.583l2.263,-9.499c-69.809,15.55 -161.006,-8.667 -101.606,-30.691l278.229,-4.045c60.337,-18.819 148.387,-16.072 235.856,-13.777c39.714,-21.047 82.585,-29.997 127.387,-31.544l90.399,-5.368l3.701,-27.108c-25.791,8.97 -54.484,-18.259 -73.41,-58.502l2.332,-127.415Z" style="stroke:#000;stroke-width:4.17px;"/><path id="Arc" d="M344.27,802.347l36.653,45.316c65.426,-45.539 159.413,-72.298 261.52,-115.891c91.384,-39.015 188.609,-94.986 288.475,-133.551l354.012,-304.135c-22.681,-75.38 -41.698,-148.516 -1.773,-185.544c14.1,-31.318 18.037,-63.293 28.956,-80.574c30.149,-47.717 55.85,-30.564 54,60.645c24.397,19.595 24.551,68.955 60.779,58.279c12.505,-3.686 36.755,2.705 26.975,7.732c-10.428,5.359 -16.803,35.89 -0.558,32.21c23.031,-5.216 23.96,28.783 45.342,27.641c17.714,-0.946 5.484,27.172 22.865,34.786c37.762,16.54 -0.901,39.402 4.274,47.392c26.138,85.55 237.547,326.277 492.261,603.275c-0,-0 22.361,36.388 -5.836,95.906c-26.618,56.185 -204.509,259.571 -456.905,428.79c-80.932,54.26 -175.397,90.245 -267.34,135.969c-29.164,32.871 -75.517,42.746 -131.73,39.432c-109.381,7.612 -191.661,7.153 -225.322,-7.786l-284.889,-5.117l-145.498,-131.66c-83.098,-38.432 -143.806,-109.724 -146.278,-219.415c-1.113,-49.343 -2.576,-130.204 -31.998,-182.515c-28.671,-50.975 -75.342,-81.554 -97.934,-128.539c-27.274,5.78 -62.579,47.099 -86.386,37.405c-23.074,-9.395 -34.748,-69.364 -54.959,-91.534c-11.426,-11.054 -44.235,4.512 -49.521,-11.059c-7.862,-23.166 15.823,-73.659 17.23,-103.644c-12.275,-28.391 -31.242,-51.089 -39.547,-80.121c-19.289,-67.435 -8.767,-116.445 41.305,-150.681c40.633,-27.782 84.966,-52.936 138.056,-61.161c46.15,-7.149 142.284,33.907 144.084,29.649c3.227,-7.638 14.012,-68.398 79.184,-47.785c34.924,11.046 83.169,90.291 67.121,139.739c-10.601,32.663 -67.187,17.083 -62.694,26.38c20.404,39.994 12.319,84.353 6.086,117.363c-11.843,62.723 -50.011,98.436 -80.01,72.803l-12.999,-16.071c4.063,6.856 8.436,12.173 12.999,16.071Zm459.326,381.861c-37.71,-53.502 -138.023,-232.111 -136.351,-245.302c3.84,-30.296 56.08,-65.3 111.997,-100.77c58.028,-36.81 135.105,-68.483 198.11,-110.795c118.256,-79.417 210.637,-163.361 281.751,-203.676c104.98,-49.744 186.118,-31.008 176.492,38.865c24.51,75.232 64.721,93.015 82.947,151.8c38.412,123.887 95.931,225.584 164.511,257.503l-333.515,196.73c-10.652,-1.695 -139.471,-23.132 -248.307,22.151c-71.009,29.544 -115.892,115.533 -170.313,118.069c-29.16,1.359 -83.234,-62.026 -127.322,-124.575Z" style="stroke:#000;stroke-width:4.17px;"/><path id="Triangle" d="M2206.12,322.797c33.478,46.881 143.947,52.473 181.576,51.769c29.743,-0.556 63.99,-7.79 84.241,-7.448c157.071,2.65 258.198,-18.552 302.822,106.883c38.214,107.414 110.509,224.358 187.166,330.986c35.59,49.505 71.967,61.354 101.611,107.944c38.625,60.706 60.066,135.11 82.833,186.539c17.894,40.423 16.887,45.527 24.559,54.015c9.332,10.326 16.249,23.166 16.137,39.198c-0.088,12.533 35.177,51.835 15.56,69.022c-17.061,14.947 -44.352,9.262 -81.481,-16.68c-5.659,-3.954 -95.929,-0.007 -96.134,-16.346c-0.382,-30.648 103.834,-2.197 89.422,-55.136c-7.076,-25.989 -71.514,-127.924 -167.362,-250.152c-23.96,-30.555 -57.429,-43.283 -83.081,-69.04c-68.496,-68.777 -126.476,-133.539 -139.73,-148.138c-35.783,-39.415 -66.589,-79.432 -66.589,-79.432c-0,-0 -222.091,212.032 -222.943,245.821c-1.034,41.026 -201.854,284.438 -226.873,301.014c-7.125,4.72 13.396,59.244 -11.278,70.662c-12.315,5.699 -50.723,-6.779 -55.191,-2.482c-7.612,7.318 -8.177,31.294 -20.279,27.197c-7.392,-2.503 -27.987,-3.567 -52.461,-4.745c-2.047,-0.098 -4.68,-1.728 -6.215,-0.298c-26.499,24.675 -19.309,-0.786 -27.382,-1.443c-3.569,-0.291 -109.887,7.077 -104.228,-8.862c2.515,-7.085 33.859,-8.757 26.2,-19.748c-9.264,-13.296 3.827,-20.626 45.334,-17.638c8.898,0.64 105.81,-55.95 114.043,-64.906c8.526,-9.274 25.516,-170.586 21.526,-281.713c-2.054,-57.219 -24.791,-93.855 -25.351,-104.813c-0.686,-13.43 9.817,-58.446 -0.775,-92.134c-16.722,-53.186 -12.633,-87.479 -7.617,-96.057c2.177,-3.723 -20.41,-0.174 -36.362,-0.401c-15.952,-0.226 6.358,47.226 -53.858,62.951c-45.227,11.81 -71.234,-2.767 -71.234,-2.767c0,-0 9.972,33.741 -28.673,29.821c-38.645,-3.92 -46.591,-44.759 -38.51,-56.844c8.082,-12.084 10.145,-6.397 -2.519,-27.295c-18.526,-30.571 -8.291,-117.723 28.685,-140.422c19.119,-11.737 37.156,-14.056 73.025,-13.985c5.852,0.012 14.098,4.778 18.893,0.199c14.704,-14.039 25.439,-4.78 33.889,-0.488c1.977,1.004 21.301,-12.608 33.395,-1.794c15.389,13.76 48.973,10.152 46.314,-14.486c-4.934,-45.702 7.811,-143.669 16.592,-158.87c5.431,-9.4 5.108,-109.374 -4.17,-138.258c-20.64,-64.25 -57.411,-284.68 -87.003,-285.798c-29.592,-1.119 -29.888,-40.931 -55.319,-47.42c-25.431,-6.489 -34.144,-24.178 -13.324,-20.436c35.58,6.396 57.09,38.147 46.477,-5.633c-10.612,-43.78 -29.368,-65.564 -15.552,-85.912c1.366,-2.012 9.365,2.112 8.672,-0.234c-5.546,-18.789 24.245,-24.844 40.813,-10.285c5.523,4.853 1.484,12.173 4.968,21.84c16.219,45.012 12.643,35.044 12.341,14.995c-0.302,-20.049 -6.282,-32.203 4.776,-18.916c11.058,13.286 13.34,17.088 22.112,78.179c0.744,5.18 4.319,19.066 8.662,60.445c7.635,72.752 81.007,189.064 97.308,243.279c16.301,54.215 1.663,212.431 11.542,264.696Zm-11.948,734.517c29.458,-46.992 59.774,-110.498 100.704,-150.188c25.884,-25.101 44.033,-52.494 43.692,-90.134l54.071,-81.093l52.401,-126.575l-66.223,18.84c-15.274,37.285 -59.347,47.827 -127.281,36.211l-18.202,5.179l-32.629,40.906c20.118,158.212 19.476,271.4 -6.221,330.25l-0.312,16.604Z" style="stroke:#000;stroke-width:4.17px;"/><path id="grand-étirement" serif:id="grand étirement" d="M-1391.88,-288.932c15.882,1.163 176.205,52.571 355.05,181.84c100.078,72.337 206.436,186.482 328.66,270.812c76.494,52.778 120.757,132.145 198.131,189.567c86.553,64.235 178.955,131.7 260.467,207.918c88.134,82.41 164.892,173.404 245.372,235.826c66.986,51.955 100.834,60.606 159.358,94.239c88.018,50.583 154.436,113.066 199.658,157.283c44.17,43.189 81.137,60.108 76.878,64.751c-8.577,9.35 107.728,97.472 53.418,103.43c-53.215,5.839 -70.626,11.63 -84.85,3.548c-14.224,-8.082 5.027,-15.138 -12.239,-23.523c-17.265,-8.386 -24.464,-6.192 -25.757,-21.709c-1.293,-15.518 -2.339,-42.807 -25.339,-51.129c-6.503,-2.353 -73.15,-28.273 -157.734,-75.192c-49.839,-27.646 -105.722,-63.158 -164.793,-99.006c-199.361,-120.984 -427.649,-229.34 -468.808,-222.099c-34.05,5.991 -131.692,30.754 -241.984,33.084c-131.83,2.786 -276.198,-20.806 -276.198,-20.806c-0,0 17.281,49.903 10.159,118.42c-6.862,66.022 -28.659,84.584 -39.486,153.235c-5.727,36.315 -11.128,59.072 -10.475,90.857c0.57,27.717 14.85,68.032 -14.469,102.856c-14.976,17.788 -44.028,-2.104 -97.559,-13.145c-36.949,-7.62 -83.196,10.863 -117.775,13.651c-23.833,1.921 -48.066,-5.531 -53.043,-10.81c-22.524,-23.895 30.754,-14.62 51.708,-24.945c20.954,-10.325 143.844,-74.773 132.054,-85.652c-2.235,-2.063 -4.202,-11.463 -8.737,-9.995c-6.126,1.984 -13.052,9.661 -18.226,16.077c-27.744,34.406 -36.683,22.522 -10.375,-13.814c3.638,-5.025 7.107,-9.245 10.375,-12.98c6.265,-7.159 3.21,-20.061 7.765,-25.904c7.592,-9.738 21.071,-13.25 22.222,-36.021c1.318,-26.048 -4.626,-159.182 3.538,-301.64c1.248,-21.765 8.046,-31.236 12.651,-55.111c6.636,-34.403 11.512,-83.068 12.184,-109.808c1.906,-75.884 -23.277,-104.908 -13.082,-134.486c12.269,-35.597 66.652,-108.213 51.372,-138.001c-10.178,-19.839 -31.056,-48.418 -48.425,-63.886c-8.71,-7.757 -12.845,-2.223 -22.159,-8.032c-0,0 9.97,30.53 -37.246,32.744c-19.188,0.9 -64.638,-9.088 -97.339,-43.348c-12.481,-13.075 -27.544,40.293 -61.366,-19.189c-37.719,-66.335 24.372,-50.271 23.855,-62.707c-1.737,-41.833 16.039,-104.944 91.621,-130.898c18.327,-6.294 23.76,-6.749 54.409,2.65c13.251,4.064 42.233,28.88 64.016,40.249c5.137,2.681 15.488,0.173 20.033,2.064c10.542,4.384 13.028,14.379 19.48,16.596c6.254,2.15 11.403,-3.411 11.403,-3.411l-151.769,-132.48l-194.526,-117.504c-0,-0 -49.442,24.179 -105.424,4.218c-73.507,-26.211 -7.854,-15.919 -27.506,-27.991c-29.914,-18.376 -92.635,-32.403 -86.798,-45.595c5.589,-12.63 58.058,-0.328 107.851,3.629c43.087,3.424 81.03,0.631 89.799,1.273Zm403.168,880.328c99.326,-20.408 196.419,-11.765 293.77,-6.494c8.904,-5.606 -98.798,-129.092 -113.848,-127.985c-21.607,1.591 -146.384,-2.653 -139.875,-16.171c-16.063,-0.866 -26.35,5.562 -30.295,20.002l-9.752,130.648Zm5.557,-493.187c-4.534,14.278 -3.56,27.107 5.466,37.817c12.24,1.805 14.393,-2.554 13.77,-8.609c-5.645,-12.419 -12.163,-21.784 -19.236,-29.208Z" style="stroke:#000;stroke-width:4.17px;"/></svg>