<svg width="70" height="77" viewBox="0 0 70 77" fill="none" xmlns="http://www.w3.org/2000/svg">
<path fill-rule="evenodd" clip-rule="evenodd" d="M52.6298 18.466C52.6298 18.466 46.7042 29.3801 44.8686 38.1652C44.6556 39.1845 43.9472 55.5083 44.7437 56.7591C46.4556 59.4475 49.5924 59.6933 49.8769 59.8313C50.3082 60.0405 49.7724 61.476 52.4687 64.8828C53.1913 65.7959 53.0341 66.7871 53.8653 67.4099C55.6221 68.7262 58.7064 69.8537 58.5257 71.3135C58.345 72.7734 57.4285 73.1575 57.4285 73.1575C57.4285 73.1575 58.6671 76.0897 57.9357 76.8141C57.2043 77.5386 56.0602 75.9649 54.5039 75.1846C52.9476 74.4044 53.176 74.655 51.3474 75.1917C49.5188 75.7284 46.9258 77.3974 44.664 75.6544C43.1361 74.4769 34.873 74.795 26.2022 75.4181C15.8552 76.1617 5.36825 76.8909 3.75845 75.1408C-0.400325 70.6196 -1.61063 46.0774 2.71676 31.985C6.74035 18.8821 7.36648 14.987 20.7084 8.03976C21.9228 7.40736 24.7946 6.7534 27.3262 5.76025C30.065 4.68579 32.4749 3.29416 33.8718 3.30915C38.0374 3.35385 41.9125 5.85735 43.4415 5.53906C45.1529 5.1828 47.4905 4.11471 49.7664 3.56561C52.0114 3.02394 54.1727 2.93229 55.1811 2.57934C57.7004 1.69762 58.5762 -1.06703 59.9828 0.442705C61.3895 1.95244 62.6343 3.32801 63.9016 2.67466C65.169 2.02136 64.7469 3.12289 64.776 3.51743C65.2436 9.85107 67.3097 5.74664 69.3737 12.0329C70.3272 14.9369 67.3914 20.7097 61.1997 21.9519C60.9144 22.0092 61.9641 22.5754 62.0593 23.0596C62.248 24.0187 61.5995 25.1079 60.6775 25.4415C56.7258 26.8713 51.2066 23.9006 51.7904 21.2579C51.8782 20.8601 51.8891 20.0734 52.331 19.5921C52.5321 19.3731 53.1201 19.4722 53.1521 19.256C53.2374 18.679 52.6298 18.466 52.6298 18.466ZM40.309 21.9716L40.0877 29.3865C37.7909 35.1258 36.3821 40.7338 38.7987 43.533C38.557 50.2324 38.0858 57.3162 39.1639 63.3169L30.7947 62.8287C25.5093 61.2131 20.1001 60.5458 14.3756 62.2959C15.3827 55.5323 16.0447 49.3776 15.8078 44.8091C17.0479 41.0571 19.6531 38.8794 20.7929 36.3249C22.5209 32.4523 20.7306 29.7451 20.1163 25.9663C19.4399 21.8056 31.6327 20.1077 40.309 21.9716Z" fill="black"/>
</svg>
