<?xml version="1.0" encoding="UTF-8" standalone="no"?><!DOCTYPE svg PUBLIC "-//W3C//DTD SVG 1.1//EN" "http://www.w3.org/Graphics/SVG/1.1/DTD/svg11.dtd"><svg width="100%" height="100%" viewBox="0 0 1369 1515" version="1.1" xmlns="http://www.w3.org/2000/svg" xmlns:xlink="http://www.w3.org/1999/xlink" xml:space="preserve" xmlns:serif="http://www.serif.com/" style="fill-rule:evenodd;clip-rule:evenodd;stroke-linecap:round;stroke-linejoin:round;stroke-miterlimit:1.5;"><path id="chameau" d="M1034.54,364.337c-0,-0 -116.243,214.106 -152.253,386.445c-4.178,19.996 -18.076,340.226 -2.451,364.764c33.583,52.738 95.119,57.561 100.701,60.268c8.461,4.103 -2.05,32.265 50.843,99.097c14.176,17.912 11.093,37.358 27.397,49.574c34.465,25.824 94.971,47.941 91.426,76.579c-3.546,28.639 -21.524,36.175 -21.524,36.175c-0,-0 24.297,57.521 9.949,71.733c-14.347,14.212 -36.793,-16.66 -67.322,-31.967c-30.53,-15.306 -26.051,-10.389 -61.922,0.14c-35.872,10.528 -86.741,43.269 -131.112,9.075c-29.973,-23.098 -192.073,-16.859 -362.171,-4.635c-202.98,14.587 -408.706,28.892 -440.286,-5.44c-81.584,-88.693 -105.327,-570.146 -20.435,-846.602c78.932,-257.044 91.215,-333.454 352.948,-469.741c23.824,-12.406 80.161,-25.235 129.824,-44.718c53.727,-21.078 101.004,-48.378 128.407,-48.084c81.717,0.877 157.736,49.989 187.731,43.745c33.574,-6.989 79.432,-27.942 124.079,-38.714c44.04,-10.626 86.439,-12.424 106.222,-19.348c49.422,-17.297 66.602,-71.532 94.196,-41.915c27.595,29.617 52.016,56.602 76.877,43.785c24.862,-12.816 16.582,8.793 17.153,16.533c9.173,124.249 49.704,43.731 90.195,167.051c18.705,56.968 -38.889,170.215 -160.353,194.585c-5.596,1.123 14.996,12.23 16.864,21.729c3.701,18.815 -9.02,40.183 -27.108,46.727c-77.522,28.049 -185.793,-30.228 -174.342,-82.071c1.723,-7.804 1.938,-23.237 10.606,-32.679c3.945,-4.297 15.481,-2.352 16.108,-6.593c1.673,-11.32 -10.247,-15.498 -10.247,-15.498Zm-241.701,68.771l-4.341,145.46c-45.057,112.59 -72.694,222.604 -25.287,277.516c-4.742,131.425 -13.985,270.391 7.165,388.109l-164.181,-9.579c-103.687,-31.693 -209.801,-44.783 -322.1,-10.451c19.756,-132.683 32.743,-253.423 28.097,-343.045c24.327,-73.603 75.433,-116.325 97.793,-166.436c33.899,-75.971 -1.221,-129.079 -13.273,-203.21c-13.269,-81.62 225.921,-114.93 396.127,-78.364Z" style="stroke:#000;stroke-width:4.17px;"/></svg>