<?xml version="1.0" encoding="UTF-8" standalone="no"?><!DOCTYPE svg PUBLIC "-//W3C//DTD SVG 1.1//EN" "http://www.w3.org/Graphics/SVG/1.1/DTD/svg11.dtd"><svg width="100%" height="100%" viewBox="0 0 1369 1515" version="1.1" xmlns="http://www.w3.org/2000/svg" xmlns:xlink="http://www.w3.org/1999/xlink" xml:space="preserve" xmlns:serif="http://www.serif.com/" style="fill-rule:evenodd;clip-rule:evenodd;stroke-linecap:round;stroke-linejoin:round;stroke-miterlimit:1.5;"><path id="Montagne" d="M1730.97,41.204c0,-0 36.638,25.726 41.847,38.952c5.209,13.225 4.901,66.439 4.901,66.439c0,0 6.833,-0.071 6.626,5.26c-0.206,5.331 -0.211,17.23 -0.211,17.23c0,-0 -27.415,61.119 -40.199,75.931c-7.9,9.152 -4.229,27.445 -0.401,36.526c1.755,4.163 18.491,24.165 38.003,33.977c23.045,11.589 49.446,14.741 56.765,14.991c22.679,0.772 48.666,23.86 56.61,58.74c10.556,46.341 -4.076,114.731 10.056,183.161c20.757,100.512 50.069,238.382 51.992,250.474c3.213,20.207 59.21,51.801 58.132,66.67c-1.078,14.869 -3.174,12.677 -9.884,22.257c-6.71,9.58 -1.003,49.951 -1.003,61.061c-0,11.11 -9.352,27.381 -16.834,31.483c-11.679,6.403 -71.926,-79.531 -71.111,-100.901c0.52,-13.64 -0.388,-62.01 -8.677,-77.723c-8.048,-15.253 -62.169,-138.456 -66.91,-176.509c-2.517,-20.2 -1.155,-56.967 -4.61,-85.05c-3.05,-24.786 -8.381,-43.891 -8.381,-43.891c3.472,2.653 -24.089,54.651 -22.57,77.084c1.905,28.133 56.132,208.108 51.196,236.509c-1.685,9.698 3.934,54.063 -4.58,102.504c-16.536,94.079 -51.243,219.419 -50.075,247.369c1.77,42.342 4.211,69.193 4.137,113.499c-0.031,18.402 3.39,55.005 -4.293,91.135c-10.816,50.857 -33.769,102.968 -33.296,121.178c0.809,31.145 -8.432,28.736 -8.432,58.432c0,29.695 16.264,55.785 21.212,63.553c15.566,24.441 -98.872,31.876 -91.347,-1.465c5.89,-26.101 15.924,-32.27 15.576,-52.077c-0.348,-19.807 -3.835,-20.225 -3.513,-30.55c0.322,-10.325 9.851,-7.222 11.001,-55.936c0.384,-16.269 -0.875,-159.595 -0.514,-183.834c0.189,-12.641 -1.089,-43.515 -4.496,-73.996c-3.125,-27.97 -8.482,-55.607 -6.733,-68.52c4.835,-35.704 -4.603,-311.441 -12.16,-297.071l-12.957,333.631c-0,0 -11.8,66.753 -11.684,93.928c0.117,27.176 7.072,106.973 7.162,126.697c0.053,11.643 -1.545,47.768 2.408,81.594c2.744,23.474 11.595,45.841 11.285,58.152c-0.756,30.051 6.856,41.288 0.643,64.28c-6.212,22.991 -61.29,27.131 -46.17,25.543c15.121,-1.588 -42.555,8 -33.495,-24.986c9.059,-32.986 32.27,-30.471 20.798,-62.023c-2.275,-6.255 -8.644,-59.512 -10.974,-65.055c-25.263,-60.113 -54.257,-189.975 -44.327,-236.634c3.631,-17.064 5.662,-78.119 -6.255,-140.236c-19.313,-100.666 -45.551,-224.256 -39.138,-256.803c5.409,-27.453 8.567,-101.82 21.716,-159.346c7.989,-34.949 29.437,-61.618 29.168,-73.722c-0.712,-32.028 -29.89,-104.915 -29.89,-104.915l-7.583,129.728c3.727,2.234 -67.935,159.244 -71.672,175.946c-4.095,18.302 0.38,36.415 -4.239,58.086c-4.618,21.671 -25.851,75.135 -37.403,80.158c-7.133,3.102 -17.593,36.21 -32.544,31.394c-9.999,-3.221 -22.42,-15.016 -22.618,-25.036c-0.198,-10.021 9.193,-4.799 8.467,-32.27c-0.725,-27.471 -17.243,-45.731 -11.994,-63.086c5.248,-17.354 43.76,-32.673 51.812,-60.249c3.171,-10.86 18.887,-86.513 34.681,-162.075c5.395,-25.81 14.287,-45.904 17.968,-71.129c12.955,-88.801 6.662,-158.355 8.631,-167.123c4.167,-18.55 7.551,-76.005 54.752,-81.569c47.201,-5.563 111.095,-18.794 111.417,-54.932c0.323,-36.139 3.762,-29.748 -2.052,-41.184c-5.813,-11.435 -46.215,-72.762 -35.986,-86.155c1.312,-1.718 4.996,0.166 5.205,-2.501c1.182,-15.05 -0.311,-48.916 -0.311,-48.916c-4.845,-14.37 15.192,-40.64 40.287,-56.254c6.668,-4.149 -6.028,-16.456 2.938,-30.374c16.741,-25.988 55.538,-19.871 65.785,-10.601c7.576,6.853 6.6,18.473 8.345,31.145Z" style="stroke:#000;stroke-width:4.17px;"/><path id="chameau" d="M1034.54,364.337c-0,-0 -116.243,214.106 -152.253,386.445c-4.178,19.996 -18.076,340.226 -2.451,364.764c33.583,52.738 95.119,57.561 100.701,60.268c8.461,4.103 -2.05,32.265 50.843,99.097c14.176,17.912 11.093,37.358 27.397,49.574c34.465,25.824 94.971,47.941 91.426,76.579c-3.546,28.639 -21.524,36.175 -21.524,36.175c-0,-0 24.297,57.521 9.949,71.733c-14.347,14.212 -36.793,-16.66 -67.322,-31.967c-30.53,-15.306 -26.051,-10.389 -61.922,0.14c-35.872,10.528 -86.741,43.269 -131.112,9.075c-29.973,-23.098 -192.073,-16.859 -362.171,-4.635c-202.98,14.587 -408.706,28.892 -440.286,-5.44c-81.584,-88.693 -105.327,-570.146 -20.435,-846.602c78.932,-257.044 91.215,-333.454 352.948,-469.741c23.824,-12.406 80.161,-25.235 129.824,-44.718c53.727,-21.078 101.004,-48.378 128.407,-48.084c81.717,0.877 157.736,49.989 187.731,43.745c33.574,-6.989 79.432,-27.942 124.079,-38.714c44.04,-10.626 86.439,-12.424 106.222,-19.348c49.422,-17.297 66.602,-71.532 94.196,-41.915c27.595,29.617 52.016,56.602 76.877,43.785c24.862,-12.816 16.582,8.793 17.153,16.533c9.173,124.249 49.704,43.731 90.195,167.051c18.705,56.968 -38.889,170.215 -160.353,194.585c-5.596,1.123 14.996,12.23 16.864,21.729c3.701,18.815 -9.02,40.183 -27.108,46.727c-77.522,28.049 -185.793,-30.228 -174.342,-82.071c1.723,-7.804 1.938,-23.237 10.606,-32.679c3.945,-4.297 15.481,-2.352 16.108,-6.593c1.673,-11.32 -10.247,-15.498 -10.247,-15.498Zm-241.701,68.771l-4.341,145.46c-45.057,112.59 -72.694,222.604 -25.287,277.516c-4.742,131.425 -13.985,270.391 7.165,388.109l-164.181,-9.579c-103.687,-31.693 -209.801,-44.783 -322.1,-10.451c19.756,-132.683 32.743,-253.423 28.097,-343.045c24.327,-73.603 75.433,-116.325 97.793,-166.436c33.899,-75.971 -1.221,-129.079 -13.273,-203.21c-13.269,-81.62 225.921,-114.93 396.127,-78.364Z" style="stroke:#000;stroke-width:4.17px;"/></svg>