<?xml version="1.0" encoding="UTF-8" standalone="no"?><!DOCTYPE svg PUBLIC "-//W3C//DTD SVG 1.1//EN" "http://www.w3.org/Graphics/SVG/1.1/DTD/svg11.dtd"><svg width="100%" height="100%" viewBox="0 0 1750 982" version="1.1" xmlns="http://www.w3.org/2000/svg" xmlns:xlink="http://www.w3.org/1999/xlink" xml:space="preserve" xmlns:serif="http://www.serif.com/" style="fill-rule:evenodd;clip-rule:evenodd;stroke-linecap:round;stroke-linejoin:round;stroke-miterlimit:1.5;"><path id="Chat" d="M122.9,979.292c-89.546,-5.782 -140.494,-38.984 -113.657,-45.53c96.188,-23.46 160.006,-7.743 173.441,-90.777c62.863,-27.322 80.033,3.586 94.56,37.863c55.979,-5.554 131.032,-2.793 195.069,-35.874c102.88,-53.148 171.668,-36.121 263.291,-18.031c-98.79,-335.181 -238.851,-695.043 174.218,-571.473l212.981,-21.723c93.131,-37.229 193.087,-43.225 297.176,-30.311c-90.971,-14.496 -144.604,-21.914 -135.745,-61.956c32.698,-15.308 75.344,2.402 105.959,-20.147c125.621,-92.525 288.159,-170.902 313.579,-76.511c20.961,25.68 18.24,60.508 11.051,97.063c42.049,61.072 41.927,114.621 7.477,162.049l-70.678,52.323c-15.801,-4.268 -25.074,5.63 -61.814,50.015c-38.725,-14.674 -63.833,-23.3 -82.819,-2.254c-20.342,22.55 -47.347,-24.063 -42.304,-69.466l-48.152,9.974c0,-0 -50.056,490.215 -56.717,554.366c-5.495,52.912 122.146,41.974 150.501,53.881c23.177,9.733 -18.535,9.359 -18.535,9.359l-147.266,-0.073c-25.771,-10.382 -39.846,-27.097 -34.47,-54.345l-7.509,-462.727c-46.709,57.664 -101.172,80.508 -171.906,30.286c-51.753,2.533 -100.54,20.587 -150.448,-0.004c-54.663,-22.552 -88.436,-22.231 -110.686,-9.478c13.133,72.875 7.003,108.261 7.359,174.301c0.622,115.428 -7.85,249.306 -66.295,301.521c-43.82,39.149 -105.684,32.179 -197.1,27.382c-162.959,-15.473 -326.391,-15.007 -490.561,10.297Z" style="stroke:#000;stroke-width:4.17px;"/><path id="Poisson" d="M2865.39,1205.53l-11.16,73.777c28.946,41.498 37.688,85.445 37.891,130.427c-49.041,85.335 -124.294,124.125 -247.595,77.59c-10.949,35.337 -29.513,52.641 -62.552,35.668c-25.457,-16.329 -40.786,-43.746 -52.012,-75.655c-4.364,-35.881 8.852,-51.325 42.071,-43.516c-8.695,-39.471 -7.624,-87.84 7.642,-131.554c-49.106,31.493 -99.939,61.434 -144.101,98.407c-88.13,73.782 -171.508,124.605 -221.413,139.255c-146.261,7.151 -285.96,-5.213 -425.7,-17.457c-73.644,12.126 -147.76,14.892 -222.172,11.789c-7.323,-3.268 -10.043,-6.988 -9.614,-11.017l-44.137,-1.201c-112.622,-0.652 -327.531,-2.516 -338.928,-5.622c-120.493,-32.827 -166.773,-57.918 -297.647,-9.165c-7.435,2.77 -11.226,5.176 -18.31,8.431c-4.83,2.22 -338.443,0.391 -504.914,-30.187c-74.8,42.428 -140.455,56.171 -182.284,-4.831c-53.188,-9.29 -105.388,-23.925 -156.037,-46.967c-2.814,-6.79 1.501,-13.048 13.287,-18.749l-17.575,-16.589l12.269,-27.036c-7.61,-7.46 -13.256,-14.569 -7.361,-19.621l14.384,-5.023c-7.467,-4.519 -7.021,-9.037 -1.161,-13.556l11.406,-5.786c4.26,-18.219 10.273,-34.271 19.572,-46.262c3.015,-6.13 7.277,-6.928 12.673,-2.872c4.492,10.343 8.229,20.708 11.112,31.099c2.939,10.59 4.99,21.206 6.048,31.852l782.761,-31.852c218.428,-105.281 451.504,-85.953 721.98,-108.246c108.354,-8.93 276.411,-44.172 362.736,-92.924c154.209,-87.092 289.349,-175.648 328.653,-152.435c95.638,56.483 192.091,137.685 341.176,196.195c23.746,-4.847 49.867,19.399 70.535,22.656c13.478,2.124 30.32,8.442 39.71,0.827c89.217,-72.349 63.613,24.347 89.323,49.638c13.227,13.012 30.382,-9.204 39.444,10.512Zm-1006.6,199.609c119.13,-1.076 244.852,-2.684 321.907,-34.556c28.648,-11.85 41.807,-32.749 57.939,-53.759c-139.657,-35.803 -263.934,14.592 -379.846,88.315Z" style="stroke:#000;stroke-width:4.17px;"/><path id="Warior-2" serif:id="Warior 2" d="M-670.586,326.095c23.548,-48.872 84.347,-70.72 133.58,-47.551c8.697,4.094 36.676,22.34 38.724,33.683c3.886,21.522 -1.493,197.071 -1.821,201.037l-33.481,0.433l-0.766,15.563l28.53,20.505l205.059,0.041l312.17,-14.551c65.998,-13.798 124.74,-23.713 119.365,0.684l-51.417,10.869l-25.472,28.856l-99.032,-1.762c-18.772,-4.577 -53.529,-10.169 -58.743,3.178c-1.752,4.482 -301.387,41.673 -299.927,48.223l-10.712,73.766l-25.922,27.917l-3.254,163.068l-13.937,8.169l-0.425,34.712c130.198,52.689 248.664,106.251 339.487,161.874l0.389,102.755l-7.186,282.391c54.117,38.605 99.125,55.523 139.054,60.353c4.006,5.894 4.405,10.302 1.195,13.226l-155.989,1.004c-1.22,4.616 -10.092,2.498 -14.32,0.281c-11.322,-5.937 -9.032,-11.231 -10.02,-21.346c-3.893,-39.864 -8.386,-56.072 -17.528,-100.192c-18.371,-88.657 -22.633,-87.881 -28.925,-174.544c-1.459,-20.085 -2.114,-40.229 -2.407,-60.364c-0.278,-19.156 0.208,-38.318 0.693,-57.469c-121.221,4.038 -228.021,0.452 -330.326,-60.668c-112.735,76.567 -229.034,158.753 -327.714,213.161c-25.459,27.418 -55.158,50.542 -86.642,70.605c-26.308,16.765 -33.325,19.385 -57.146,35.818c-38.477,26.543 -103.273,104.329 -85.097,142.701c6.773,14.299 -5.709,28.436 -11.877,28.094c-27.125,-1.502 -63.714,9.753 -70.263,0l-2.194,-44.725c71.022,-101.057 149.384,-200.547 266.663,-291.726l110.016,-120.356l155.788,-222.086c19.717,-93.499 16.696,-182.852 -73.102,-256.385l-432.308,1.982c-5.155,5.07 -14.738,7.828 -26.173,9.618c-29.368,3.666 -58.146,4.328 -86.275,1.691c6.205,-8.353 14.179,-15.543 34.538,-14.584l2.262,-9.498c-69.809,15.549 -161.006,-8.668 -101.605,-30.692l278.228,-4.044c60.338,-18.82 148.387,-16.073 235.856,-13.777c39.714,-21.048 82.585,-29.998 127.388,-31.545l90.399,-5.368l3.701,-27.108c-25.791,8.97 -54.485,-18.259 -73.411,-58.502l2.332,-127.415Z" style="stroke:#000;stroke-width:4.17px;"/><path id="Arc" d="M-1509.61,-513.727l36.653,45.316c65.426,-45.539 159.413,-72.298 261.52,-115.891c91.384,-39.015 188.609,-94.986 288.475,-133.551l354.012,-304.135c-22.681,-75.38 -41.698,-148.516 -1.772,-185.544c14.099,-31.317 18.037,-63.293 28.955,-80.574c30.15,-47.717 55.85,-30.564 54,60.645c24.397,19.595 24.551,68.956 60.779,58.279c12.505,-3.685 36.756,2.705 26.976,7.732c-10.429,5.36 -16.803,35.89 -0.559,32.21c23.031,-5.216 23.96,28.783 45.342,27.641c17.714,-0.946 5.484,27.172 22.866,34.786c37.762,16.54 -0.901,39.402 4.273,47.392c26.139,85.55 237.548,326.277 492.261,603.275c0,-0 22.362,36.388 -5.835,95.906c-26.619,56.186 -204.509,259.571 -456.906,428.79c-80.931,54.26 -175.396,90.246 -267.34,135.969c-29.164,32.871 -75.517,42.746 -131.73,39.432c-109.381,7.612 -191.661,7.153 -225.322,-7.786l-284.889,-5.117l-145.497,-131.66c-83.099,-38.432 -143.807,-109.724 -146.279,-219.415c-1.112,-49.343 -2.576,-130.204 -31.998,-182.515c-28.671,-50.974 -75.342,-81.554 -97.933,-128.538c-27.275,5.779 -62.58,47.098 -86.386,37.404c-23.074,-9.395 -34.749,-69.364 -54.96,-91.534c-11.425,-11.054 -44.235,4.512 -49.52,-11.059c-7.863,-23.166 15.822,-73.659 17.229,-103.644c-12.275,-28.391 -31.242,-51.088 -39.546,-80.121c-19.29,-67.435 -8.768,-116.445 41.304,-150.681c40.633,-27.782 84.967,-52.935 138.057,-61.16c46.15,-7.15 142.284,33.906 144.083,29.648c3.228,-7.637 14.012,-68.398 79.184,-47.785c34.924,11.046 83.169,90.292 67.121,139.739c-10.6,32.663 -67.187,17.083 -62.693,26.38c20.403,39.994 12.318,84.353 6.085,117.363c-11.843,62.723 -50.011,98.436 -80.01,72.803l-12.998,-16.071c4.063,6.856 8.436,12.173 12.998,16.071Zm459.327,381.861c-37.711,-53.501 -138.024,-232.111 -136.352,-245.302c3.84,-30.296 56.08,-65.3 111.997,-100.77c58.028,-36.809 135.105,-68.482 198.111,-110.795c118.255,-79.417 210.637,-163.361 281.751,-203.676c104.979,-49.744 186.118,-31.008 176.491,38.866c24.511,75.231 64.722,93.014 82.948,151.799c38.411,123.887 95.93,225.585 164.51,257.503l-333.514,196.73c-10.653,-1.695 -139.472,-23.131 -248.307,22.151c-71.009,29.544 -115.893,115.533 -170.314,118.069c-29.16,1.359 -83.233,-62.026 -127.321,-124.575Z" style="stroke:#000;stroke-width:4.17px;"/><path id="Arbre" d="M2103.7,-1588.98c1.223,-0.985 4.386,-3.361 9.868,-6.658c20.913,-12.579 28.224,-8.958 9.778,6.314c-18.446,15.271 -28.642,26.653 -38.821,60.77c-10.178,34.117 -73.736,243.2 -96.419,280.317c-7.975,13.049 -2.647,29.737 -8.15,46.312c-10.149,30.571 -30.437,63.857 -50.539,95.089c-8.98,13.952 -3.899,25.93 -7.314,37.016c-8.372,27.182 -15.784,48.993 -27.908,81.362c-10.719,28.615 -21.011,70.566 -16.203,110.232c2.849,23.504 18.589,45.695 22.015,65.225c3.127,17.819 9.294,48.324 4.876,85.867c-8.595,73.048 -34.914,165.493 -45.11,192.201c-15.436,40.435 -44.805,99.485 -45.263,164.375c-0.457,64.891 -0.593,93.137 -19.801,138.556c-19.208,45.418 -46.025,96.959 -47.071,134.111c-1.047,37.151 -5.677,43.835 7.862,55.858c13.539,12.022 14.228,4.195 14.228,21.848c-0,17.653 -20.334,19.354 -27.795,20.396c-7.461,1.043 -46.941,8.542 -46.689,-16.304c0.252,-24.845 -1.472,-44.217 0.884,-59.96c2.356,-15.743 1.125,-14.909 10.02,-33.862c8.896,-18.953 5.857,0.322 7.101,-38.693c0.751,-23.578 -2.624,-78.63 2.543,-122.692c3.383,-28.847 11.458,-41.617 10.717,-52.499c-1.873,-27.503 2.708,-47.758 0.797,-62.467c-1.91,-14.709 -15.776,1.815 -14.661,-18.318c1.115,-20.133 -3.963,-14.282 2.99,-24.745c4.45,-6.697 5.153,-4.363 4.493,-6.867c-0.37,-1.408 -1.172,-4.344 -1.979,-11.273c-2.244,-19.254 -6.671,-20.489 -15.563,-36.676c-8.892,-16.187 -1.869,-50.697 -62.087,-49.764c-60.217,0.934 -237.917,-3.285 -237.917,-3.285c0,0 -95.799,-44.636 -16.414,-100.322c79.385,-55.687 214.03,-111.441 243.685,-140.31c29.655,-28.869 55.062,-89.126 49.682,-120.259c-5.381,-31.134 -22.65,-101.922 -20.572,-125.267c2.078,-23.344 -33.296,-131.724 -53.492,-170.655c-20.346,-39.219 -92.289,-254.436 -96.599,-281.294c-1.631,-10.158 0.423,-23.023 -5.491,-40.137c-11.97,-34.637 -44.218,-77.761 -47.783,-84.791c-5.727,-11.291 0.83,-28.14 8.682,-14.92c10.791,18.167 25.753,29.029 12.314,0.69c-11.21,-23.637 -19.823,-47.373 1.708,-26.714c3.859,3.703 7.894,6.745 8.488,10.096c2.257,12.748 6.598,10.723 0.196,-6.152c-8.561,-22.57 -12.641,-43.964 13.452,-13.743c24.437,28.304 30.251,94.187 39.56,68.333c9.31,-25.855 23.248,-30.766 19.607,-10.497c-3.641,20.27 -18.731,76.803 10.732,134.737c29.462,57.934 66.5,205.88 109.198,250.046c42.697,44.167 67.938,68.988 65.027,18.445c-0.137,-2.393 1.325,-5.759 -0.633,-7.316c-36.135,-28.723 -42.273,-134.932 3.408,-167.239c5.188,-3.669 -0.819,-19.444 6.932,-29.66c5.644,-7.44 24.427,-10.512 31.499,-10.774c3.728,-0.139 21.394,3.919 25.519,9.854c5.945,8.551 -1.422,20.195 5.492,22.035c31.354,8.344 73.172,110.595 5.128,174.802c-3.464,3.269 3.749,36.79 15.332,42.435c10.628,5.179 24.972,-16.733 37.365,-29.428c10.913,-11.178 26.767,-24.069 36.635,-37.616c4.045,-5.552 54.285,-112.526 62.788,-126.627c8.503,-14.102 73.661,-157.069 67.252,-174.008c-6.41,-16.939 -28.019,-54.911 -32.69,-59.273c-4.672,-4.362 -4.17,-27.136 10.782,-8.652c14.952,18.485 19.026,33.5 30.942,17.191c11.915,-16.309 68.156,-70.304 68.156,-70.304c-0,-0 38.269,-20.182 12.639,20.212c-18.913,29.807 -30.852,38.067 -27.408,35.296Zm-380.138,944.29c-0,-0 37.969,40.853 19.871,47.515c-1.69,0.623 -27.829,8.504 -56.632,7.149c-37.771,-1.778 -80.08,-13.051 -77.429,-13.221c11.136,-0.714 109.433,-36.752 114.19,-41.443Z" style="stroke:#000;stroke-width:4.17px;"/></svg>