<svg width="138" height="78" viewBox="0 0 138 78" fill="none" xmlns="http://www.w3.org/2000/svg">
<path fill-rule="evenodd" clip-rule="evenodd" d="M9.60288 77.0833C2.54703 76.6277 -1.46746 74.0115 0.647181 73.4957C8.2264 71.6471 13.255 72.8856 14.3136 66.3428C19.267 64.19 20.6199 66.6254 21.7646 69.3263C26.1755 68.8886 32.0893 69.1062 37.1352 66.4996C45.2417 62.3117 50.6619 63.6534 57.8814 65.0788C50.0972 38.6679 39.061 10.3123 71.6091 20.0491L88.3911 18.3374C95.7294 15.4039 103.606 14.9314 111.807 15.949C104.639 14.8068 100.413 14.2223 101.111 11.0671C103.688 9.86093 107.048 11.2564 109.46 9.47964C119.359 2.18905 132.166 -3.98673 134.169 3.45089C135.821 5.47436 135.606 8.21867 135.04 11.099C138.353 15.9113 138.344 20.1307 135.629 23.8678L130.06 27.9907C128.815 27.6544 128.084 28.4343 125.189 31.9317C122.138 30.7754 120.159 30.0957 118.663 31.754C117.061 33.5309 114.933 29.858 115.33 26.2804L111.536 27.0663C111.536 27.0663 107.592 65.6932 107.067 70.7481C106.634 74.9173 116.691 74.0554 118.926 74.9937C120.752 75.7606 117.465 75.7311 117.465 75.7311L105.861 75.7254C103.831 74.9073 102.721 73.5902 103.145 71.4432L102.553 34.9822C98.8729 39.5259 94.5815 41.3259 89.0079 37.3686C84.93 37.5682 81.0858 38.9908 77.1532 37.3683C72.846 35.5913 70.1848 35.6166 68.4316 36.6215C69.4665 42.3638 68.9834 45.152 69.0115 50.3557C69.0605 59.4509 68.3929 70 63.7877 74.1143C60.3349 77.1991 55.4603 76.6499 48.2571 76.2719C35.4166 75.0527 22.5388 75.0894 9.60288 77.0833Z" fill="black"/>
</svg>
