<?xml version="1.0" encoding="UTF-8" standalone="no"?><!DOCTYPE svg PUBLIC "-//W3C//DTD SVG 1.1//EN" "http://www.w3.org/Graphics/SVG/1.1/DTD/svg11.dtd"><svg width="100%" height="100%" viewBox="0 0 1750 982" version="1.1" xmlns="http://www.w3.org/2000/svg" xmlns:xlink="http://www.w3.org/1999/xlink" xml:space="preserve" xmlns:serif="http://www.serif.com/" style="fill-rule:evenodd;clip-rule:evenodd;stroke-linecap:round;stroke-linejoin:round;stroke-miterlimit:1.5;"><path id="Chat" d="M122.9,979.292c-89.546,-5.782 -140.494,-38.984 -113.657,-45.53c96.188,-23.46 160.006,-7.743 173.441,-90.777c62.863,-27.322 80.033,3.586 94.56,37.863c55.979,-5.554 131.032,-2.793 195.069,-35.874c102.88,-53.148 171.668,-36.121 263.291,-18.031c-98.79,-335.181 -238.851,-695.043 174.218,-571.473l212.981,-21.723c93.131,-37.229 193.087,-43.225 297.176,-30.311c-90.971,-14.496 -144.604,-21.914 -135.745,-61.956c32.698,-15.308 75.344,2.402 105.959,-20.147c125.621,-92.525 288.159,-170.902 313.579,-76.511c20.961,25.68 18.24,60.508 11.051,97.063c42.049,61.072 41.927,114.621 7.477,162.049l-70.678,52.323c-15.801,-4.268 -25.074,5.63 -61.814,50.015c-38.725,-14.674 -63.833,-23.3 -82.819,-2.254c-20.342,22.55 -47.347,-24.063 -42.304,-69.466l-48.152,9.974c0,-0 -50.056,490.215 -56.717,554.366c-5.495,52.912 122.146,41.974 150.501,53.881c23.177,9.733 -18.535,9.359 -18.535,9.359l-147.266,-0.073c-25.771,-10.382 -39.846,-27.097 -34.47,-54.345l-7.509,-462.727c-46.709,57.664 -101.172,80.508 -171.906,30.286c-51.753,2.533 -100.54,20.587 -150.448,-0.004c-54.663,-22.552 -88.436,-22.231 -110.686,-9.478c13.133,72.875 7.003,108.261 7.359,174.301c0.622,115.428 -7.85,249.306 -66.295,301.521c-43.82,39.149 -105.684,32.179 -197.1,27.382c-162.959,-15.473 -326.391,-15.007 -490.561,10.297Z" style="stroke:#000;stroke-width:4.17px;"/></svg>