<svg width="138" height="77" viewBox="0 0 138 77" fill="none" xmlns="http://www.w3.org/2000/svg">
<path fill-rule="evenodd" clip-rule="evenodd" d="M9.51987 77C2.46402 76.5444 -1.55047 73.9282 0.564173 73.4124C8.14339 71.5639 13.172 72.8023 14.2306 66.2596C19.184 64.1067 20.5369 66.5421 21.6815 69.243C26.0925 68.8054 32.0063 69.0229 37.0522 66.4163C45.1587 62.2285 50.5789 63.5701 57.7984 64.9955C50.0142 38.5847 38.9779 10.229 71.5261 19.9658L88.3081 18.2541C95.6464 15.3207 103.523 14.8482 111.724 15.8658C104.556 14.7235 100.33 14.139 101.028 10.9839C103.605 9.77768 106.965 11.1732 109.377 9.39638C119.276 2.1058 132.083 -4.06999 134.086 3.36763C135.738 5.39111 135.523 8.13541 134.957 11.0158C138.27 15.828 138.26 20.0475 135.546 23.7846L129.977 27.9074C128.732 27.5711 128.001 28.351 125.106 31.8484C122.055 30.6921 120.076 30.0125 118.58 31.6708C116.977 33.4476 114.85 29.7747 115.247 26.1972L111.453 26.9831C111.453 26.9831 107.509 65.61 106.984 70.6648C106.551 74.8341 116.608 73.9722 118.843 74.9104C120.669 75.6773 117.382 75.6479 117.382 75.6479L105.778 75.6421C103.748 74.8241 102.638 73.507 103.062 71.36L102.47 34.899C98.7899 39.4427 94.4985 41.2427 88.9249 37.2854C84.847 37.485 81.0028 38.9076 77.0702 37.2851C72.763 35.5081 70.1018 35.5334 68.3486 36.5382C69.3835 42.2805 68.9004 45.0688 68.9285 50.2724C68.9775 59.3677 68.3099 69.9167 63.7047 74.0311C60.2519 77.1158 55.3773 76.5666 48.1741 76.1886C35.3336 74.9694 22.4558 75.0062 9.51987 77Z" fill="black"/>
</svg>
