<svg width="270" height="78" viewBox="0 0 270 78" fill="none" xmlns="http://www.w3.org/2000/svg">
<path fill-rule="evenodd" clip-rule="evenodd" d="M144.578 11.301C144.578 11.301 207.975 -9.42664 235.734 5.4685C263.493 20.3636 248.203 46.1093 245.943 46.2595C245.002 46.3221 249.446 48.146 254.17 51.0702C255.833 52.0997 258.09 50.5619 261.544 52.8461C265.556 55.4993 265.013 57.497 266.743 58.5095C269.041 59.8547 269.31 60.0718 269.31 60.0718C270.07 61.4375 269.264 62.2556 267.16 62.6197C271.122 66.8089 269.29 68.5734 263.63 67.1341C262.635 66.8811 262.106 65.9371 260.841 65.5261C260.841 65.5261 252.852 66.7996 243.739 69.1631C239.651 70.2233 234.963 68.2662 229.927 68.7508C204.751 71.1733 172.536 73.7293 167.259 71.547C158.403 67.8845 154.875 54.7768 159.409 52.2956C161.538 51.1304 130.177 46.1331 130.355 47.4668C130.684 49.9156 134.455 54.8018 131.09 55.919C127.725 57.0364 123.012 57.9765 122.578 60.2544C122.144 62.5321 123.4 64.5897 119.356 64.0507C115.313 63.5116 113.36 60.3301 109.936 62.5897C106.513 64.8492 99.4622 69.0498 92.1406 65.004C88.9888 63.2623 87.4661 62.3731 84.8993 63.8555C83.8859 64.4407 77.5218 68.375 68.9304 69.8554C55.7623 72.1244 38.0012 72.7667 35.67 74.349C30.5329 77.836 15.684 75.8278 8.59345 77.0562C6.13001 77.4829 -4.52619 72.6955 2.38277 71.5103C4.94624 71.0706 8.18513 70.8549 12.9328 69.7414C13.6966 69.5624 13.2172 68.4579 14.0244 68.2688C15.4948 67.9242 22.8564 67.4714 31.4688 65.3236C32.4782 65.0719 33.5117 64.8101 34.5645 64.5399C40.4753 63.0227 47.17 61.7771 53.2586 59.4706C68.0741 53.8582 81.5351 50.6637 82.16 50.8844C83.853 51.4822 84.8624 48.781 82.8558 49.703C82.2893 49.9633 80.1871 51.5234 76.8869 51.8813C68.4987 52.7909 54.1508 52.6877 50.7444 53.5834C50.331 53.6921 48.4261 54.1772 46.1407 55.203C43.977 56.1741 45.2064 57.2336 36.3828 57.9217C19.6263 59.2281 28.5965 56.1966 25.0041 56.3582C18.3654 56.6568 12.5241 55.4455 13.9584 54.3044C17.4986 51.4878 28.44 52.4372 34.3723 51.6526C36.6589 51.3502 44.0571 47.932 53.8425 45.8364C58.8511 44.7637 64.4727 43.3504 69.184 41.8722C76.1809 39.6767 81.7435 36.7295 84.8748 35.5834C86.3121 35.0572 86.6512 33.3019 86.6364 33.2815C86.1632 32.6263 75.5611 27.0645 88.179 20.9747C102.2 14.2078 97.108 25.7153 99.8818 25.0432C105.804 23.608 111.441 25.9126 111.675 25.7258C119.206 19.7117 133.459 13.4776 135.826 13.0816C140.417 12.3135 144.578 11.301 144.578 11.301H144.578Z" fill="black"/>
</svg>
