<svg width="123" height="35" viewBox="0 0 123 35" fill="none" xmlns="http://www.w3.org/2000/svg">
<path fill-rule="evenodd" clip-rule="evenodd" d="M65.6776 5.0991C65.6776 5.0991 94.4946 -4.32257 107.112 2.44795C119.73 9.21847 112.78 20.921 111.752 20.9893C111.325 21.0178 113.345 21.8468 115.492 23.176C116.248 23.644 117.274 22.9449 118.844 23.9832C120.668 25.1892 120.421 26.0973 121.207 26.5575C122.252 27.169 122.374 27.2676 122.374 27.2676C122.719 27.8884 122.353 28.2603 121.397 28.4258C123.197 30.33 122.365 31.132 119.792 30.4778C119.34 30.3628 119.1 29.9337 118.524 29.7469C118.524 29.7469 114.893 30.3257 110.751 31.4001C108.893 31.882 106.761 30.9924 104.473 31.2126C93.0287 32.3138 78.3858 33.4756 75.9872 32.4836C71.9617 30.8188 70.3581 24.8608 72.4189 23.733C73.3868 23.2034 59.1315 20.9319 59.2127 21.5381C59.3619 22.6512 61.0763 24.8722 59.5468 25.38C58.0172 25.8879 55.8748 26.3152 55.6776 27.3506C55.4804 28.386 56.051 29.3212 54.2131 29.0762C52.3752 28.8312 51.4874 27.385 49.9314 28.4121C48.3753 29.4392 45.1703 31.3485 41.8424 29.5096C40.4097 28.7179 39.7176 28.3137 38.5509 28.9875C38.0902 29.2535 35.1974 31.0418 31.2923 31.7147C25.3068 32.7461 17.2336 33.038 16.1739 33.7573C13.8388 35.3423 7.08938 34.4295 3.86639 34.9878C2.74664 35.1818 -2.09709 33.0057 1.04335 32.467C2.20856 32.2671 3.68079 32.1691 5.8388 31.6629C6.18599 31.5815 5.96807 31.0795 6.33498 30.9935C7.00337 30.8369 10.3495 30.6311 14.2643 29.6548C14.7231 29.5404 15.1929 29.4214 15.6714 29.2986C18.3581 28.6089 21.4012 28.0428 24.1687 26.9944C30.9031 24.4433 37.0217 22.9912 37.3057 23.0915C38.0753 23.3633 38.5341 22.1355 37.622 22.5545C37.3645 22.6729 36.409 23.382 34.9089 23.5447C31.096 23.9582 24.5743 23.9112 23.0259 24.3184C22.838 24.3678 21.9721 24.5883 20.9333 25.0545C19.9498 25.496 20.5086 25.9776 16.4979 26.2903C8.88132 26.8842 12.9587 25.5062 11.3258 25.5797C8.3082 25.7154 5.65304 25.1648 6.30499 24.6461C7.91418 23.3658 12.8875 23.7974 15.584 23.4407C16.6234 23.3033 19.9862 21.7495 24.4341 20.797C26.7108 20.3094 29.266 19.667 31.4075 18.9951C34.588 17.9971 37.1164 16.6575 38.5397 16.1365C39.193 15.8974 39.3472 15.0995 39.3405 15.0902C39.1254 14.7924 34.3062 12.2643 40.0417 9.49621C46.4146 6.42037 44.1003 11.6511 45.3611 11.3455C48.0532 10.6932 50.6153 11.7407 50.7215 11.6558C54.1447 8.92212 60.6233 6.08845 61.6992 5.90847C63.7863 5.55931 65.6777 5.0991 65.6777 5.0991H65.6776Z" fill="black"/>
</svg>
