<?xml version="1.0" encoding="UTF-8" standalone="no"?><!DOCTYPE svg PUBLIC "-//W3C//DTD SVG 1.1//EN" "http://www.w3.org/Graphics/SVG/1.1/DTD/svg11.dtd"><svg width="100%" height="100%" viewBox="0 0 3060 878" version="1.1" xmlns="http://www.w3.org/2000/svg" xmlns:xlink="http://www.w3.org/1999/xlink" xml:space="preserve" xmlns:serif="http://www.serif.com/" style="fill-rule:evenodd;clip-rule:evenodd;stroke-linecap:round;stroke-linejoin:round;stroke-miterlimit:1.5;"><path id="Enfant" d="M1640.12,129.257c0,0 718.709,-234.981 1033.4,-66.121c314.69,168.86 141.349,460.728 115.726,462.431c-10.66,0.709 39.721,21.386 93.273,54.537c18.852,11.671 44.434,-5.763 83.594,20.132c45.488,30.079 39.327,52.726 58.938,64.204c26.055,15.25 29.103,17.711 29.103,17.711c8.61,15.483 -0.527,24.757 -24.369,28.885c44.906,47.491 24.141,67.494 -40.023,51.178c-11.283,-2.869 -17.273,-13.57 -31.617,-18.23c0,-0 -90.564,14.437 -193.883,41.232c-46.341,12.019 -99.492,-10.168 -156.577,-4.675c-285.415,27.463 -650.617,56.44 -710.44,31.7c-100.398,-41.521 -140.392,-190.117 -88.994,-218.245c24.139,-13.21 -331.396,-69.862 -329.369,-54.742c3.72,27.761 46.478,83.153 8.331,95.819c-38.148,12.667 -91.581,23.325 -96.499,49.148c-4.919,25.822 9.313,49.148 -36.526,43.037c-45.838,-6.111 -67.979,-42.179 -106.788,-16.563c-38.809,25.616 -118.742,73.236 -201.743,27.371c-35.731,-19.745 -52.993,-29.826 -82.092,-13.021c-11.489,6.635 -83.636,51.236 -181.033,68.019c-149.281,25.722 -350.631,33.004 -377.059,50.942c-58.238,39.531 -226.573,16.765 -306.956,30.69c-27.927,4.838 -148.732,-49.435 -70.408,-62.871c29.061,-4.985 65.779,-7.43 119.601,-20.053c8.659,-2.03 3.224,-14.551 12.375,-16.695c16.67,-3.906 100.125,-9.04 197.76,-33.388c11.443,-2.854 23.16,-5.822 35.095,-8.885c67.008,-17.2 142.903,-31.321 211.927,-57.468c167.958,-63.626 320.559,-99.841 327.644,-97.339c19.193,6.777 30.636,-23.845 7.888,-13.393c-6.423,2.951 -30.254,20.638 -67.667,24.695c-95.094,10.312 -257.75,9.142 -296.367,19.296c-4.687,1.232 -26.282,6.732 -52.19,18.36c-24.529,11.01 -10.592,23.021 -110.622,30.821c-189.961,14.811 -88.27,-19.556 -128.995,-17.724c-75.26,3.385 -141.481,-10.347 -125.221,-23.283c40.134,-31.931 164.172,-21.168 231.424,-30.063c25.922,-3.428 109.793,-42.179 220.726,-65.936c56.78,-12.16 120.51,-28.182 173.92,-44.94c79.321,-24.89 142.382,-58.301 177.88,-71.294c16.294,-5.965 20.139,-25.864 19.971,-26.096c-5.365,-7.427 -125.556,-70.479 17.488,-139.517c158.945,-76.713 101.224,53.743 132.669,46.123c67.142,-16.27 131.042,9.856 133.692,7.739c85.377,-68.18 246.955,-138.853 273.788,-143.342c52.054,-8.708 99.227,-20.186 99.227,-20.186Z" style="stroke:#000;stroke-width:4.17px;"/></svg>