<svg width="165" height="120" viewBox="0 0 165 120" fill="none" xmlns="http://www.w3.org/2000/svg">
<path fill-rule="evenodd" clip-rule="evenodd" d="M15.5965 0.823688C16.8474 0.915205 29.4741 4.96408 43.5596 15.1451C51.4415 20.8421 59.8181 29.8319 69.4442 36.4737C75.4687 40.6304 78.9548 46.8811 85.0486 51.4036C91.8654 56.4626 99.1428 61.7761 105.563 67.7788C112.504 74.2693 118.549 81.4357 124.888 86.352C130.163 90.4439 132.829 91.1253 137.438 93.7741C144.37 97.758 149.601 102.679 153.163 106.161C156.642 109.563 159.553 110.895 159.218 111.261C158.542 111.997 167.702 118.938 163.425 119.407C159.234 119.867 157.862 120.323 156.742 119.686C155.622 119.05 157.138 118.494 155.778 117.834C154.419 117.173 153.852 117.346 153.75 116.124C153.648 114.902 153.566 112.753 151.754 112.097C151.242 111.912 145.993 109.87 139.331 106.175C135.406 103.998 131.005 101.201 126.352 98.3778C110.651 88.8493 92.6716 80.3153 89.43 80.8857C86.7484 81.3574 79.0582 83.3078 70.3718 83.4913C59.9892 83.7107 48.619 81.8527 48.619 81.8527C48.619 81.8527 49.98 85.7829 49.4191 91.1792C48.8787 96.3789 47.162 97.8409 46.3093 103.248C45.8582 106.108 45.4328 107.9 45.4843 110.403C45.5292 112.586 46.6538 115.761 44.3447 118.504C43.1652 119.905 40.8772 118.338 36.6612 117.469C33.7511 116.869 30.1088 118.324 27.3854 118.544C25.5084 118.695 23.5999 118.108 23.2079 117.693C21.4339 115.811 25.63 116.541 27.2803 115.728C28.9306 114.915 38.6092 109.839 37.6806 108.982C37.5047 108.82 37.3497 108.079 36.9926 108.195C36.51 108.351 35.9646 108.956 35.5571 109.461C33.372 112.171 32.668 111.235 34.7399 108.373C35.0265 107.977 35.2997 107.645 35.5571 107.351C36.0505 106.787 35.8099 105.771 36.1686 105.311C36.7665 104.544 37.8281 104.267 37.9188 102.474C38.0226 100.422 37.5544 89.937 38.1974 78.7173C38.2957 77.0031 38.8311 76.2572 39.1938 74.3769C39.7164 71.6673 40.1005 67.8346 40.1534 65.7286C40.3035 59.7521 38.3201 57.4663 39.1231 55.1368C40.0894 52.3332 44.3725 46.6141 43.169 44.2681C42.3674 42.7055 40.7231 40.4547 39.3552 39.2364C38.6692 38.6256 38.3435 39.0614 37.61 38.6039C37.61 38.6039 38.3952 41.0083 34.6765 41.1828C33.1653 41.2536 29.5858 40.467 27.0103 37.7688C26.0273 36.7389 24.841 40.9422 22.1772 36.2575C19.2066 31.0331 24.0967 32.2982 24.056 31.3188C23.9192 28.0241 25.3192 23.0535 31.2719 21.0095C32.7153 20.5138 33.1432 20.478 35.5571 21.2182C36.6007 21.5383 38.8832 23.4928 40.5988 24.3882C41.0034 24.5993 41.8186 24.4018 42.1766 24.5507C43.0069 24.896 43.2027 25.6832 43.7108 25.8578C44.2034 26.0271 44.6089 25.5891 44.6089 25.5891L32.6559 15.1553L17.3354 5.90091C17.3354 5.90091 13.4414 7.8052 9.03236 6.23303C3.24309 4.16878 8.4138 4.97936 6.86604 4.02859C4.51008 2.58133 -0.429709 1.47659 0.0300016 0.437616C0.470181 -0.557099 4.60254 0.411783 8.52414 0.723429C11.9176 0.993097 14.9059 0.773125 15.5965 0.823688ZM47.3493 70.1565C55.172 68.5493 62.8189 69.23 70.486 69.6452C71.1873 69.2037 62.7049 59.4781 61.5196 59.5653C59.8179 59.6906 49.9907 59.3563 50.5033 58.2917C49.2383 58.2234 48.428 58.7298 48.1173 59.867L47.3493 70.1565ZM47.7869 31.3142C47.4298 32.4387 47.5066 33.4491 48.2174 34.2925C49.1814 34.4347 49.351 34.0914 49.3019 33.6145C48.8573 32.6364 48.344 31.8988 47.7869 31.3142Z" fill="black"/>
</svg>
