<?xml version="1.0" encoding="UTF-8" standalone="no"?><!DOCTYPE svg PUBLIC "-//W3C//DTD SVG 1.1//EN" "http://www.w3.org/Graphics/SVG/1.1/DTD/svg11.dtd"><svg width="100%" height="100%" viewBox="0 0 2094 1528" version="1.1" xmlns="http://www.w3.org/2000/svg" xmlns:xlink="http://www.w3.org/1999/xlink" xml:space="preserve" xmlns:serif="http://www.serif.com/" style="fill-rule:evenodd;clip-rule:evenodd;stroke-linecap:round;stroke-linejoin:round;stroke-miterlimit:1.5;"><path id="grand-étirement" serif:id="grand étirement" d="M200.114,12.542c15.882,1.162 176.205,52.571 355.05,181.84c100.078,72.336 206.436,186.481 328.66,270.812c76.494,52.778 120.757,132.144 198.131,189.567c86.553,64.235 178.955,131.7 260.467,207.918c88.134,82.41 164.892,173.403 245.372,235.825c66.986,51.956 100.834,60.607 159.358,94.24c88.018,50.583 154.436,113.065 199.658,157.282c44.17,43.189 81.137,60.109 76.878,64.752c-8.577,9.349 107.728,97.471 53.418,103.43c-53.215,5.839 -70.626,11.63 -84.85,3.548c-14.224,-8.082 5.027,-15.138 -12.239,-23.524c-17.265,-8.385 -24.464,-6.192 -25.757,-21.709c-1.293,-15.517 -2.338,-42.807 -25.339,-51.128c-6.503,-2.353 -73.149,-28.274 -157.734,-75.193c-49.838,-27.646 -105.722,-63.157 -164.793,-99.005c-199.361,-120.984 -427.649,-229.341 -468.808,-222.099c-34.049,5.99 -131.692,30.754 -241.984,33.084c-131.83,2.785 -276.198,-20.806 -276.198,-20.806c-0,0 17.281,49.902 10.159,118.42c-6.862,66.021 -28.659,84.584 -39.486,153.235c-5.727,36.315 -11.128,59.072 -10.475,90.856c0.57,27.718 14.85,68.032 -14.469,102.857c-14.976,17.787 -44.028,-2.105 -97.559,-13.145c-36.949,-7.62 -83.196,10.863 -117.775,13.651c-23.833,1.921 -48.066,-5.531 -53.043,-10.811c-22.524,-23.894 30.754,-14.619 51.708,-24.944c20.954,-10.325 143.844,-74.774 132.054,-85.653c-2.234,-2.062 -4.202,-11.462 -8.736,-9.994c-6.127,1.984 -13.053,9.66 -18.227,16.077c-27.744,34.406 -36.683,22.521 -10.375,-13.815c3.638,-5.025 7.107,-9.245 10.375,-12.979c6.265,-7.16 3.21,-20.061 7.765,-25.904c7.592,-9.739 21.071,-13.251 22.222,-36.022c1.318,-26.047 -4.626,-159.182 3.538,-301.639c1.248,-21.765 8.046,-31.236 12.651,-55.111c6.636,-34.404 11.512,-83.068 12.184,-109.808c1.906,-75.885 -23.277,-104.908 -13.082,-134.486c12.269,-35.597 66.652,-108.213 51.372,-138.001c-10.178,-19.84 -31.056,-48.419 -48.425,-63.887c-8.71,-7.756 -12.845,-2.222 -22.159,-8.031c-0,-0 9.97,30.529 -37.246,32.744c-19.188,0.899 -64.638,-9.088 -97.339,-43.348c-12.481,-13.076 -27.544,40.293 -61.366,-19.189c-37.719,-66.335 24.372,-50.271 23.855,-62.707c-1.737,-41.833 16.039,-104.945 91.621,-130.899c18.327,-6.293 23.76,-6.748 54.409,2.651c13.251,4.064 42.233,28.88 64.016,40.249c5.137,2.681 15.488,0.173 20.033,2.063c10.542,4.385 13.028,14.38 19.48,16.597c6.254,2.149 11.403,-3.412 11.403,-3.412l-151.768,-132.479l-194.527,-117.504c-0,-0 -49.442,24.179 -105.424,4.217c-73.507,-26.21 -7.854,-15.918 -27.506,-27.99c-29.914,-18.376 -92.635,-32.403 -86.798,-45.595c5.589,-12.63 58.058,-0.328 107.851,3.629c43.087,3.424 81.03,0.631 89.799,1.273Zm403.168,880.327c99.326,-20.407 196.419,-11.764 293.77,-6.493c8.904,-5.606 -98.798,-129.093 -113.848,-127.985c-21.607,1.591 -146.384,-2.654 -139.875,-16.171c-16.062,-0.867 -26.35,5.562 -30.295,20.002l-9.752,130.647Zm5.557,-493.186c-4.534,14.278 -3.56,27.107 5.466,37.816c12.24,1.806 14.393,-2.553 13.77,-8.608c-5.645,-12.42 -12.163,-21.785 -19.236,-29.208Z" style="stroke:#000;stroke-width:4.17px;"/></svg>