<svg width="106" height="78" viewBox="0 0 106 78" fill="none" xmlns="http://www.w3.org/2000/svg">
<path fill-rule="evenodd" clip-rule="evenodd" d="M10.0908 0.612029C10.8934 0.670752 18.9956 3.26878 28.0337 9.80157C33.0913 13.4572 38.4663 19.2257 44.643 23.4874C48.5088 26.1547 50.7457 30.1655 54.6559 33.0675C59.03 36.3137 63.6996 39.7231 67.819 43.5749C72.2729 47.7396 76.152 52.3381 80.2192 55.4927C83.6044 58.1183 85.315 58.5555 88.2726 60.2552C92.7207 62.8115 96.0772 65.9691 98.3626 68.2037C100.595 70.3863 102.463 71.2414 102.248 71.476C101.814 71.9485 107.692 76.4019 104.947 76.703C102.258 76.9981 101.378 77.2908 100.659 76.8823C99.9404 76.4739 100.913 76.1173 100.041 75.6935C99.1682 75.2698 98.8044 75.3806 98.7391 74.5964C98.6737 73.8122 98.6209 72.4331 97.4585 72.0126C97.1299 71.8937 93.7618 70.5837 89.4872 68.2126C86.9686 66.8155 84.1444 65.0209 81.1592 63.2092C71.0842 57.0951 59.5473 51.6192 57.4673 51.9851C55.7466 52.2879 50.812 53.5393 45.2383 53.6571C38.576 53.7978 31.2802 52.6056 31.2802 52.6056C31.2802 52.6056 32.1535 55.1275 31.7936 58.5902C31.4468 61.9266 30.3453 62.8647 29.7981 66.3341C29.5087 68.1693 29.2358 69.3194 29.2688 70.9256C29.2976 72.3264 30.0192 74.3637 28.5375 76.1237C27.7807 77.0226 26.3125 76.0173 23.6073 75.4594C21.74 75.0743 19.4028 76.0083 17.6553 76.1492C16.4509 76.2463 15.2262 75.8697 14.9747 75.6029C13.8364 74.3954 16.5289 74.8641 17.5879 74.3423C18.6468 73.8205 24.8572 70.5635 24.2614 70.0137C24.1485 69.9095 24.049 69.4345 23.8199 69.5087C23.5103 69.6089 23.1603 69.9968 22.8988 70.3211C21.4967 72.0599 21.045 71.4593 22.3745 69.623C22.5583 69.369 22.7336 69.1558 22.8988 68.9671C23.2154 68.6052 23.061 67.9532 23.2912 67.658C23.6749 67.1658 24.3561 66.9883 24.4142 65.8375C24.4808 64.5212 24.1804 57.793 24.593 50.5938C24.6561 49.4938 24.9996 49.0152 25.2324 47.8087C25.5677 46.07 25.8141 43.6107 25.8481 42.2594C25.9444 38.4244 24.6718 36.9577 25.187 35.4629C25.807 33.664 28.5553 29.9942 27.7831 28.4888C27.2688 27.4862 26.2137 26.0419 25.3359 25.2602C24.8957 24.8683 24.6868 25.1479 24.2161 24.8544C24.2161 24.8544 24.7199 26.3972 22.3338 26.5091C21.3641 26.5546 19.0672 26.0498 17.4146 24.3185C16.7839 23.6577 16.0226 26.3547 14.3134 23.3487C12.4072 19.9964 15.5451 20.8082 15.519 20.1797C15.4312 18.0656 16.3295 14.8762 20.1491 13.5646C21.0753 13.2465 21.3499 13.2235 22.8988 13.6985C23.5684 13.9039 25.0331 15.158 26.1339 15.7326C26.3935 15.8681 26.9166 15.7413 27.1463 15.8368C27.6791 16.0584 27.8047 16.5636 28.1308 16.6756C28.4468 16.7842 28.707 16.5032 28.707 16.5032L21.0372 9.80814L11.2065 3.86991C11.2065 3.86991 8.7079 5.09183 5.87877 4.08302C2.16399 2.75846 5.48186 3.27858 4.48872 2.66851C2.97697 1.73985 -0.192722 1.03098 0.102259 0.3643C0.384707 -0.273976 3.0363 0.347724 5.55266 0.547696C7.73013 0.720733 9.64763 0.579585 10.0908 0.612029ZM30.4655 45.1006C35.485 44.0693 40.3918 44.5061 45.3115 44.7725C45.7615 44.4892 40.3186 38.2486 39.5581 38.3046C38.4661 38.385 32.1603 38.1705 32.4893 37.4873C31.6776 37.4435 31.1577 37.7684 30.9583 38.4982L30.4655 45.1006ZM30.7463 20.1768C30.5172 20.8983 30.5664 21.5466 31.0225 22.0878C31.6411 22.1791 31.7499 21.9588 31.7184 21.6528C31.4331 21.0252 31.1037 20.5519 30.7463 20.1768Z" fill="black"/>
</svg>
