<svg width="75" height="40" viewBox="0 0 75 40" fill="none" xmlns="http://www.w3.org/2000/svg">
<path fill-rule="evenodd" clip-rule="evenodd" d="M29.001 0.00750686C32.8404 0.146001 42.2214 2.31568 49.7907 5.64493C50.4353 5.92846 50.8291 7.27143 51.5342 7.59908C52.1793 7.8988 53.6547 7.76637 54.3373 8.08378C61.6692 11.4935 69.8714 16.2881 70.1171 19.9271C70.4105 24.275 68.0741 28.9925 68.0741 28.9925C68.0741 28.9925 73.4308 27.8702 74.0615 30.9143C74.6923 33.9584 71.7925 36.7503 71.7925 36.7503L55.183 37.4892C55.183 37.4892 55.5804 38.9653 53.5603 39.7931C51.2825 40.7264 38.3041 38.2316 38.491 37.6721L34.6755 39.3306L7.3446 38.077C7.19878 38.47 -0.484012 35.2508 0.024135 29.146C0.150689 27.6255 0.154113 25.4728 1.01339 23.485C3.18482 18.4618 7.45526 12.3517 8.83406 9.75111C9.58359 8.33746 13.0309 5.28103 17.3229 3.06403C21.1698 1.07696 25.8501 -0.106098 29.001 0.00750686Z" fill="black"/>
</svg>
