<svg width="143" height="78" viewBox="0 0 143 78" fill="none" xmlns="http://www.w3.org/2000/svg">
<path fill-rule="evenodd" clip-rule="evenodd" d="M55.9099 0.0974585C63.3008 0.364059 81.3592 4.54069 95.9301 10.9495C97.171 11.4953 97.929 14.0805 99.2863 14.7112C100.528 15.2882 103.368 15.0333 104.682 15.6443C118.796 22.2079 134.585 31.4376 135.058 38.4426C135.623 46.8124 131.126 55.8936 131.126 55.8936C131.126 55.8936 141.437 53.7331 142.651 59.593C143.866 65.4529 138.283 70.8274 138.283 70.8274L106.31 72.2497C106.31 72.2497 107.075 75.0913 103.186 76.6848C98.8019 78.4814 73.8184 73.6788 74.1782 72.6018L66.8333 75.7945L14.2214 73.3812C13.9407 74.1377 -0.848716 67.9409 0.129468 56.1891C0.373084 53.2621 0.379675 49.1181 2.03378 45.2917C6.21379 35.622 14.4344 23.86 17.0886 18.8539C18.5314 16.1326 25.1675 10.249 33.4295 5.98126C40.8349 2.15616 49.8445 -0.12123 55.9099 0.0974585Z" fill="black"/>
</svg>
