<?xml version="1.0" encoding="UTF-8" standalone="no"?><!DOCTYPE svg PUBLIC "-//W3C//DTD SVG 1.1//EN" "http://www.w3.org/Graphics/SVG/1.1/DTD/svg11.dtd"><svg width="100%" height="100%" viewBox="0 0 1694 916" version="1.1" xmlns="http://www.w3.org/2000/svg" xmlns:xlink="http://www.w3.org/1999/xlink" xml:space="preserve" xmlns:serif="http://www.serif.com/" style="fill-rule:evenodd;clip-rule:evenodd;stroke-linecap:round;stroke-linejoin:round;stroke-miterlimit:1.5;"><path id="Huitre" d="M662.748,2.254c87.466,3.155 301.172,52.582 473.607,128.425c14.685,6.459 23.655,37.053 39.718,44.517c14.695,6.828 48.307,3.811 63.856,11.042c167.027,77.675 353.88,186.901 359.476,269.799c6.685,99.05 -46.541,206.519 -46.541,206.519c-0,0 122.03,-25.568 136.399,43.779c14.369,69.347 -51.691,132.95 -51.691,132.95l-378.376,16.832c-0,0 9.053,33.627 -36.968,52.485c-51.888,21.261 -347.547,-35.573 -343.289,-48.319l-86.921,37.783l-622.619,-28.559c-3.322,8.952 -178.342,-64.382 -166.766,-203.455c2.883,-34.638 2.961,-83.679 22.536,-128.961c49.467,-114.433 146.751,-253.627 178.161,-312.87c17.075,-32.204 95.607,-101.832 193.382,-152.337c87.636,-45.267 194.258,-72.218 266.036,-69.63Z" style="stroke:#000;stroke-width:4.17px;"/></svg>