<svg width="31" height="78" viewBox="0 0 31 78" fill="none" xmlns="http://www.w3.org/2000/svg">
<path fill-rule="evenodd" clip-rule="evenodd" d="M17.0893 1.90838C17.0893 1.90838 18.7986 3.1086 19.0416 3.72564C19.2847 4.34264 19.2703 6.82527 19.2703 6.82527C19.2703 6.82527 19.5891 6.82196 19.5794 7.07067C19.5698 7.31938 19.5696 7.87452 19.5696 7.87452C19.5696 7.87452 18.2906 10.726 17.6941 11.417C17.3256 11.844 17.4968 12.6974 17.6754 13.1211C17.7573 13.3153 18.5381 14.2485 19.4484 14.7062C20.5235 15.2469 21.7553 15.3939 22.0967 15.4056C23.1548 15.4416 24.3672 16.5188 24.7378 18.1461C25.2303 20.308 24.5476 23.4987 25.2069 26.6912C26.1753 31.3805 27.5428 37.8126 27.6326 38.3768C27.7825 39.3195 30.3949 40.7935 30.3446 41.4872C30.2943 42.1809 30.1966 42.0786 29.8835 42.5256C29.5705 42.9725 29.8367 44.856 29.8367 45.3743C29.8367 45.8926 29.4004 46.6517 29.0513 46.8431C28.5065 47.1418 25.6957 43.1327 25.7337 42.1357C25.758 41.4993 25.7156 39.2427 25.3289 38.5096C24.9535 37.798 22.4285 32.0501 22.2073 30.2748C22.0899 29.3324 22.1534 27.6171 21.9923 26.3069C21.85 25.1505 21.6012 24.2592 21.6012 24.2592C21.7632 24.383 20.4774 26.8089 20.5483 27.8555C20.6371 29.168 23.167 37.5645 22.9368 38.8895C22.8581 39.3419 23.1203 41.4117 22.7231 43.6717C21.9516 48.0608 20.3324 53.9084 20.3869 55.2124C20.4695 57.1878 20.5834 58.4405 20.5799 60.5076C20.5785 61.3661 20.7381 63.0738 20.3796 64.7594C19.875 67.132 18.8042 69.5632 18.8262 70.4128C18.864 71.8658 18.4328 71.7534 18.4328 73.1388C18.4328 74.5242 19.1916 75.7414 19.4225 76.1038C20.1487 77.2441 14.8097 77.591 15.1608 76.0355C15.4356 74.8178 15.9037 74.53 15.8874 73.6059C15.8712 72.6818 15.7085 72.6623 15.7236 72.1806C15.7386 71.6989 16.1832 71.8437 16.2368 69.571C16.2547 68.812 16.196 62.1253 16.2128 60.9944C16.2216 60.4047 16.162 58.9643 16.0031 57.5423C15.8573 56.2373 15.6074 54.948 15.6889 54.3455C15.9145 52.6798 15.4742 39.8156 15.1216 40.486L14.5171 56.0512C14.5171 56.0512 13.9666 59.1655 13.972 60.4333C13.9775 61.7012 14.302 65.424 14.3062 66.3442C14.3086 66.8874 14.2341 68.5728 14.4185 70.1509C14.5465 71.246 14.9595 72.2895 14.945 72.8639C14.9097 74.2659 15.2649 74.7901 14.975 75.8628C14.6852 76.9354 12.1156 77.1285 12.821 77.0545C13.5265 76.9804 10.8356 77.4277 11.2583 75.8888C11.681 74.3498 12.7639 74.4672 12.2286 72.9952C12.1225 72.7033 11.8254 70.2187 11.7167 69.9601C10.538 67.1556 9.18536 61.097 9.64863 58.9202C9.81803 58.1241 9.91279 55.2757 9.35682 52.3777C8.45579 47.6812 7.23169 41.9153 7.53088 40.3968C7.78323 39.1161 7.93056 35.6465 8.54401 32.9627C8.91673 31.3322 9.91736 30.088 9.90481 29.5233C9.87159 28.0291 8.51033 24.6286 8.51033 24.6286L8.15655 30.681C8.33043 30.7852 4.98713 38.1103 4.81278 38.8895C4.62173 39.7434 4.83051 40.5884 4.61502 41.5994C4.39957 42.6105 3.40897 45.1048 2.87002 45.3391C2.53724 45.4838 2.04924 47.0284 1.35172 46.8038C0.88523 46.6535 0.305743 46.1032 0.296506 45.6357C0.287269 45.1682 0.725394 45.4118 0.691524 44.1302C0.6577 42.8486 -0.112928 41.9967 0.131958 41.187C0.376797 40.3774 2.17353 39.6627 2.54919 38.3762C2.69712 37.8695 3.43034 34.34 4.16719 30.8148C4.41888 29.6106 4.83373 28.6732 5.00541 27.4963C5.60986 23.3534 5.31622 20.1085 5.40813 19.6994C5.60254 18.834 5.76041 16.1535 7.96252 15.8939C10.1646 15.6344 13.1455 15.0171 13.1605 13.3311C13.1756 11.6451 13.3361 11.9432 13.0648 11.4097C12.7936 10.8762 10.9087 8.01508 11.3859 7.39025C11.4471 7.3101 11.619 7.39799 11.6288 7.27357C11.6839 6.57143 11.6143 4.99145 11.6143 4.99145C11.3882 4.32104 12.323 3.09544 13.4938 2.36699C13.8049 2.17342 13.2126 1.59925 13.6309 0.949925C14.4119 -0.262514 16.2219 0.022867 16.7 0.455348C17.0534 0.775066 17.0079 1.31718 17.0893 1.90838Z" fill="black"/>
</svg>
