<?xml version="1.0" encoding="UTF-8" standalone="no"?><!DOCTYPE svg PUBLIC "-//W3C//DTD SVG 1.1//EN" "http://www.w3.org/Graphics/SVG/1.1/DTD/svg11.dtd"><svg width="100%" height="100%" viewBox="0 0 653 1655" version="1.1" xmlns="http://www.w3.org/2000/svg" xmlns:xlink="http://www.w3.org/1999/xlink" xml:space="preserve" xmlns:serif="http://www.serif.com/" style="fill-rule:evenodd;clip-rule:evenodd;stroke-linecap:round;stroke-linejoin:round;stroke-miterlimit:1.5;"><path id="Montagne" d="M366.584,41.204c0,-0 36.638,25.726 41.847,38.952c5.209,13.225 4.901,66.439 4.901,66.439c0,0 6.833,-0.071 6.626,5.26c-0.206,5.331 -0.211,17.23 -0.211,17.23c0,-0 -27.415,61.119 -40.199,75.931c-7.9,9.152 -4.229,27.445 -0.401,36.526c1.755,4.163 18.491,24.165 38.003,33.977c23.045,11.589 49.446,14.741 56.765,14.991c22.679,0.772 48.666,23.86 56.61,58.74c10.556,46.341 -4.076,114.731 10.056,183.161c20.757,100.512 50.069,238.382 51.992,250.474c3.213,20.207 59.21,51.801 58.132,66.67c-1.078,14.869 -3.174,12.677 -9.884,22.257c-6.71,9.58 -1.003,49.951 -1.003,61.061c-0,11.11 -9.352,27.381 -16.834,31.483c-11.679,6.403 -71.926,-79.531 -71.111,-100.901c0.52,-13.64 -0.388,-62.01 -8.677,-77.723c-8.048,-15.253 -62.17,-138.456 -66.91,-176.509c-2.517,-20.2 -1.155,-56.967 -4.61,-85.05c-3.05,-24.786 -8.381,-43.891 -8.381,-43.891c3.472,2.653 -24.089,54.651 -22.57,77.084c1.905,28.133 56.132,208.108 51.196,236.509c-1.685,9.698 3.934,54.063 -4.58,102.504c-16.537,94.079 -51.243,219.419 -50.075,247.369c1.77,42.342 4.211,69.193 4.137,113.499c-0.031,18.402 3.39,55.005 -4.293,91.135c-10.816,50.857 -33.769,102.968 -33.296,121.178c0.809,31.145 -8.432,28.736 -8.432,58.432c0,29.695 16.264,55.785 21.212,63.553c15.566,24.441 -98.872,31.876 -91.347,-1.465c5.89,-26.101 15.923,-32.27 15.575,-52.077c-0.347,-19.807 -3.835,-20.225 -3.512,-30.55c0.322,-10.325 9.851,-7.222 11.001,-55.936c0.384,-16.269 -0.875,-159.595 -0.514,-183.834c0.189,-12.641 -1.089,-43.515 -4.496,-73.996c-3.125,-27.97 -8.482,-55.607 -6.733,-68.52c4.835,-35.704 -4.603,-311.441 -12.16,-297.071l-12.957,333.631c-0,0 -11.801,66.753 -11.684,93.928c0.117,27.176 7.072,106.973 7.162,126.697c0.053,11.643 -1.545,47.768 2.408,81.594c2.744,23.474 11.595,45.841 11.285,58.152c-0.756,30.051 6.856,41.288 0.643,64.28c-6.212,22.991 -61.29,27.131 -46.17,25.543c15.121,-1.588 -42.555,8 -33.495,-24.986c9.059,-32.986 32.27,-30.471 20.798,-62.023c-2.275,-6.255 -8.644,-59.512 -10.974,-65.055c-25.263,-60.113 -54.257,-189.975 -44.327,-236.634c3.631,-17.064 5.662,-78.119 -6.255,-140.236c-19.313,-100.666 -45.551,-224.256 -39.138,-256.803c5.409,-27.453 8.567,-101.82 21.716,-159.346c7.989,-34.949 29.437,-61.618 29.168,-73.722c-0.712,-32.028 -29.89,-104.915 -29.89,-104.915l-7.583,129.728c3.727,2.234 -67.935,159.244 -71.672,175.946c-4.095,18.302 0.38,36.415 -4.239,58.086c-4.618,21.671 -25.851,75.135 -37.403,80.158c-7.133,3.102 -17.593,36.21 -32.544,31.394c-9.999,-3.221 -22.42,-15.016 -22.618,-25.036c-0.198,-10.021 9.193,-4.799 8.467,-32.27c-0.725,-27.471 -17.243,-45.731 -11.994,-63.086c5.248,-17.354 43.76,-32.673 51.812,-60.249c3.171,-10.86 18.887,-86.513 34.681,-162.075c5.395,-25.81 14.287,-45.904 17.967,-71.129c12.956,-88.801 6.662,-158.355 8.632,-167.123c4.167,-18.55 7.551,-76.005 54.752,-81.569c47.201,-5.563 111.095,-18.794 111.417,-54.932c0.323,-36.139 3.762,-29.748 -2.052,-41.184c-5.813,-11.435 -46.215,-72.762 -35.986,-86.155c1.312,-1.718 4.996,0.166 5.205,-2.501c1.182,-15.05 -0.311,-48.916 -0.311,-48.916c-4.845,-14.37 15.192,-40.64 40.287,-56.254c6.668,-4.149 -6.028,-16.456 2.938,-30.374c16.741,-25.988 55.538,-19.871 65.785,-10.601c7.576,6.853 6.6,18.473 8.345,31.145Z" style="stroke:#000;stroke-width:4.17px;"/></svg>