<svg width="56" height="140" viewBox="0 0 56 140" fill="none" xmlns="http://www.w3.org/2000/svg">
<path fill-rule="evenodd" clip-rule="evenodd" d="M30.9188 3.31842C30.9188 3.31842 34.0266 5.50063 34.4685 6.62252C34.9103 7.74433 34.8842 12.2582 34.8842 12.2582C34.8842 12.2582 35.4638 12.2522 35.4462 12.7044C35.4288 13.1566 35.4283 14.1659 35.4283 14.1659C35.4283 14.1659 33.1029 19.3504 32.0184 20.6068C31.3483 21.3831 31.6597 22.9348 31.9844 23.7051C32.1333 24.0582 33.5529 25.7549 35.208 26.5872C37.1628 27.5703 39.4023 27.8376 40.0231 27.8588C41.9469 27.9243 44.1512 29.8828 44.8251 32.8415C45.7205 36.7723 44.4793 42.5735 45.6781 48.3781C47.4388 56.904 49.9252 68.5989 50.0883 69.6246C50.3609 71.3386 55.1108 74.0186 55.0194 75.2799C54.9279 76.5411 54.7501 76.3552 54.181 77.1678C53.6118 77.9805 54.0959 81.4049 54.0959 82.3473C54.0959 83.2897 53.3026 84.6699 52.6679 85.0179C51.6773 85.561 46.5668 78.2717 46.6359 76.4589C46.68 75.3019 46.603 71.1989 45.8999 69.8661C45.2172 68.5722 40.6263 58.1215 40.2243 54.8937C40.0108 53.1802 40.1263 50.0615 39.8332 47.6793C39.5745 45.5768 39.1223 43.9563 39.1223 43.9563C39.4168 44.1813 37.0789 48.592 37.2078 50.4949C37.3694 52.8813 41.9692 68.1477 41.5505 70.5568C41.4076 71.3794 41.8842 75.1427 41.162 79.2517C39.7592 87.232 36.8153 97.864 36.9144 100.235C37.0645 103.826 37.2716 106.104 37.2653 109.862C37.2627 111.423 37.5529 114.528 36.9011 117.593C35.9837 121.907 34.0367 126.327 34.0768 127.872C34.1454 130.514 33.3616 130.309 33.3616 132.828C33.3616 135.347 34.7412 137.56 35.1609 138.219C36.4813 140.292 26.7741 140.923 27.4124 138.095C27.912 135.881 28.763 135.358 28.7335 133.678C28.7041 131.997 28.4082 131.962 28.4356 131.086C28.4629 130.21 29.2712 130.474 29.3688 126.341C29.4013 124.961 29.2945 112.804 29.3252 110.748C29.3412 109.675 29.2328 107.056 28.9438 104.471C28.6787 102.098 28.2243 99.754 28.3727 98.6587C28.7828 95.6301 27.9822 72.2407 27.3412 73.4596L26.2421 101.76C26.2421 101.76 25.2411 107.422 25.251 109.727C25.2609 112.033 25.8509 118.801 25.8585 120.474C25.863 121.462 25.7275 124.526 26.0628 127.396C26.2956 129.387 27.0463 131.284 27.02 132.328C26.9559 134.877 27.6016 135.831 27.0746 137.781C26.5477 139.731 21.8757 140.082 23.1582 139.948C24.4409 139.813 19.5485 140.626 20.317 137.828C21.0854 135.03 23.0543 135.243 22.0812 132.567C21.8882 132.037 21.348 127.519 21.1503 127.049C19.0074 121.95 16.548 110.934 17.3903 106.976C17.6983 105.529 17.8706 100.35 16.8597 95.0808C15.2215 86.5418 12.9958 76.0582 13.5398 73.2974C13.9986 70.9687 14.2665 64.6605 15.3819 59.7809C16.0595 56.8163 17.8789 54.5541 17.856 53.5274C17.7957 50.8106 15.3206 44.628 15.3206 44.628L14.6774 55.6322C14.9935 55.8217 8.9148 69.1401 8.59781 70.5568C8.25045 72.1093 8.63005 73.6457 8.23824 75.484C7.84652 77.3222 6.04542 81.8573 5.06553 82.2834C4.46047 82.5465 3.5732 85.3549 2.30498 84.9464C1.45681 84.6732 0.403198 83.6726 0.386403 82.8227C0.369608 81.9727 1.1662 82.4156 1.10462 80.0854C1.04312 77.7552 -0.358022 76.2062 0.0872248 74.7341C0.532387 73.2621 3.79917 71.9626 4.48218 69.6235C4.75116 68.7023 6.08428 62.285 7.424 55.8755C7.88163 53.6861 8.6359 51.9816 8.94806 49.8419C10.047 42.3094 9.51316 36.4095 9.68027 35.6657C10.0337 34.0922 10.3208 29.2186 14.3246 28.7466C18.3284 28.2747 23.7483 27.1524 23.7756 24.087C23.803 21.0215 24.0947 21.5636 23.6015 20.5936C23.1084 19.6236 19.6813 14.4215 20.549 13.2855C20.6603 13.1397 20.9728 13.2995 20.9905 13.0733C21.0908 11.7967 20.9641 8.924 20.9641 8.924C20.5531 7.70506 22.2528 5.47671 24.3815 4.15225C24.9471 3.80031 23.8701 2.75636 24.6307 1.57577C26.0507 -0.628666 29.3417 -0.109791 30.2109 0.676538C30.8535 1.25784 30.7708 2.24351 30.9188 3.31842Z" fill="black"/>
</svg>
