<svg width="366" height="78" viewBox="0 0 366 78" fill="none" xmlns="http://www.w3.org/2000/svg">
<path fill-rule="evenodd" clip-rule="evenodd" d="M361.91 36.0199L360.495 45.3692C364.163 50.6282 365.271 56.1973 365.297 61.8976C359.082 72.7116 349.546 77.6271 333.921 71.73C332.533 76.2081 330.181 78.4011 325.994 76.25C322.768 74.1808 320.825 70.7064 319.403 66.6627C318.85 62.1157 320.525 60.1586 324.734 61.1482C323.632 56.1463 323.768 50.0167 325.703 44.4771C319.48 48.468 313.038 52.2623 307.441 56.9477C296.273 66.2976 285.707 72.7381 279.383 74.5946C260.848 75.5008 243.145 73.934 225.437 72.3824C216.104 73.9192 206.712 74.2696 197.282 73.8764C196.354 73.4622 196.01 72.9908 196.064 72.4803L190.471 72.328C176.199 72.2454 148.965 72.0092 147.52 71.6157C132.251 67.4556 126.386 64.276 109.801 70.4542C108.859 70.8052 108.379 71.1101 107.481 71.5226C106.869 71.8039 64.592 71.5721 43.4959 67.6972C34.0171 73.0738 25.6969 74.8154 20.3962 67.085C13.6561 65.9077 7.04095 64.0531 0.622622 61.1331C0.26602 60.2726 0.812835 59.4796 2.30641 58.7572L0.0791016 56.6549L1.63401 53.2288C0.66951 52.2836 -0.0458485 51.3826 0.701191 50.7425L2.52399 50.1058C1.57774 49.5333 1.63426 48.9606 2.37686 48.3879L3.82228 47.6547C4.36213 45.3459 5.12412 43.3119 6.30253 41.7923C6.6846 41.0154 7.22457 40.9143 7.9085 41.4284C8.47775 42.739 8.95131 44.0526 9.31666 45.3692C9.6891 46.7113 9.94901 48.0566 10.083 49.4057L109.278 45.3692C136.958 32.0276 166.494 34.4769 200.77 31.652C214.501 30.5202 235.798 26.0542 246.737 19.8761C266.28 8.83949 283.405 -2.3827 288.386 0.558948C300.506 7.71671 312.728 18.007 331.621 25.4216C334.63 24.8074 337.94 27.8799 340.559 28.2927C342.268 28.5618 344.402 29.3626 345.592 28.3975C356.898 19.2291 353.653 31.4828 356.911 34.6878C358.587 36.3367 360.761 33.5216 361.91 36.0199ZM234.349 61.3153C249.446 61.1789 265.378 60.9751 275.143 56.9361C278.773 55.4344 280.44 52.786 282.485 50.1236C264.787 45.5865 249.038 51.9727 234.349 61.3153Z" fill="black"/>
</svg>
