<svg width="143" height="30" viewBox="0 0 143 30" fill="none" xmlns="http://www.w3.org/2000/svg">
<path fill-rule="evenodd" clip-rule="evenodd" d="M140.973 14.0013L140.422 17.6439C141.851 19.6928 142.283 21.8626 142.293 24.0835C139.871 28.2968 136.156 30.2119 130.068 27.9143C129.528 29.659 128.611 30.5134 126.98 29.6754C125.723 28.8692 124.966 27.5155 124.412 25.9401C124.196 24.1685 124.849 23.406 126.489 23.7915C126.06 21.8427 126.113 19.4546 126.866 17.2963C124.442 18.8512 121.932 20.3295 119.752 22.155C115.4 25.7978 111.284 28.3071 108.82 29.0304C101.598 29.3835 94.7011 28.773 87.8016 28.1685C84.1657 28.7673 80.5063 28.9038 76.8324 28.7506C76.4708 28.5892 76.3365 28.4055 76.3577 28.2066L74.1785 28.1473C68.618 28.1151 58.0073 28.0231 57.4446 27.8698C51.4955 26.249 49.2105 25.0102 42.7489 27.4172C42.3818 27.554 42.1946 27.6728 41.8449 27.8335C41.6064 27.9431 25.1349 27.8528 16.9157 26.3431C13.2226 28.4379 9.98096 29.1164 7.91574 26.1046C5.28973 25.6459 2.71241 24.9233 0.211761 23.7857C0.0728253 23.4504 0.28587 23.1414 0.867781 22.86L0 22.0409L0.605807 20.7061C0.230029 20.3378 -0.0486818 19.9867 0.242372 19.7374L0.952554 19.4893C0.583886 19.2662 0.605906 19.0431 0.895232 18.82L1.45838 18.5343C1.66871 17.6348 1.96559 16.8423 2.42471 16.2503C2.57357 15.9476 2.78395 15.9082 3.05042 16.1085C3.2722 16.6191 3.45671 17.1309 3.59905 17.6439C3.74416 18.1668 3.84542 18.6909 3.89761 19.2165L42.5449 17.6439C53.3294 12.4458 64.8371 13.4001 78.1913 12.2995C83.5411 11.8586 91.8386 10.1186 96.1007 7.71152C103.714 3.41152 110.387 -0.960761 112.327 0.185336C117.049 2.97407 121.811 6.98327 129.172 9.87208C130.345 9.63277 131.634 10.8299 132.655 10.9907C133.32 11.0955 134.152 11.4075 134.615 11.0315C139.02 7.45942 137.756 12.2336 139.025 13.4823C139.679 14.1247 140.525 13.0279 140.973 14.0013ZM91.274 23.8567C97.1558 23.8035 103.363 23.7241 107.168 22.1505C108.582 21.5654 109.232 20.5336 110.028 19.4962C103.133 17.7285 96.9969 20.2167 91.274 23.8567Z" fill="black"/>
</svg>
