<?xml version="1.0" encoding="UTF-8" standalone="no"?><!DOCTYPE svg PUBLIC "-//W3C//DTD SVG 1.1//EN" "http://www.w3.org/Graphics/SVG/1.1/DTD/svg11.dtd"><svg width="100%" height="100%" viewBox="0 0 2887 612" version="1.1" xmlns="http://www.w3.org/2000/svg" xmlns:xlink="http://www.w3.org/1999/xlink" xml:space="preserve" xmlns:serif="http://www.serif.com/" style="fill-rule:evenodd;clip-rule:evenodd;stroke-linecap:round;stroke-linejoin:round;stroke-miterlimit:1.5;"><path id="Poisson" d="M2857.34,285.665l-11.16,73.777c28.945,41.499 37.688,85.446 37.891,130.428c-49.042,85.335 -124.294,124.124 -247.595,77.589c-10.949,35.337 -29.513,52.642 -62.552,35.668c-25.458,-16.329 -40.787,-43.746 -52.012,-75.655c-4.364,-35.881 8.852,-51.325 42.071,-43.516c-8.696,-39.471 -7.624,-87.84 7.641,-131.554c-49.105,31.493 -99.938,61.434 -144.101,98.407c-88.129,73.782 -171.508,124.605 -221.412,139.255c-146.261,7.151 -285.96,-5.213 -425.701,-17.457c-73.643,12.127 -147.759,14.892 -222.171,11.789c-7.323,-3.268 -10.043,-6.988 -9.614,-11.017l-44.137,-1.201c-112.622,-0.652 -327.531,-2.516 -338.928,-5.621c-120.493,-32.828 -166.773,-57.919 -297.647,-9.166c-7.435,2.77 -11.226,5.176 -18.31,8.431c-4.83,2.22 -338.443,0.391 -504.915,-30.187c-74.799,42.428 -140.455,56.171 -182.284,-4.831c-53.187,-9.29 -105.388,-23.925 -156.036,-46.967c-2.814,-6.79 1.501,-13.048 13.287,-18.749l-17.576,-16.589l12.27,-27.036c-7.611,-7.459 -13.256,-14.569 -7.361,-19.62l14.384,-5.024c-7.467,-4.518 -7.021,-9.037 -1.161,-13.556l11.406,-5.786c4.26,-18.219 10.273,-34.27 19.572,-46.261c3.015,-6.131 7.276,-6.929 12.673,-2.872c4.492,10.342 8.229,20.708 11.112,31.098c2.939,10.59 4.99,21.206 6.047,31.852l782.761,-31.852c218.429,-105.281 451.505,-85.953 721.981,-108.245c108.354,-8.931 276.411,-44.173 362.735,-92.925c154.21,-87.092 289.35,-175.648 328.654,-152.435c95.638,56.483 192.09,137.685 341.176,196.195c23.746,-4.847 49.866,19.399 70.534,22.656c13.479,2.124 30.32,8.443 39.711,0.827c89.217,-72.349 63.613,24.347 89.323,49.638c13.227,13.012 30.381,-9.203 39.444,10.512Zm-1006.6,199.61c119.129,-1.077 244.852,-2.685 321.907,-34.557c28.647,-11.85 41.807,-32.749 57.939,-53.759c-139.657,-35.803 -263.935,14.592 -379.846,88.316Z" style="stroke:#000;stroke-width:4.17px;"/></svg>