<?xml version="1.0" encoding="UTF-8" standalone="no"?><!DOCTYPE svg PUBLIC "-//W3C//DTD SVG 1.1//EN" "http://www.w3.org/Graphics/SVG/1.1/DTD/svg11.dtd"><svg width="100%" height="100%" viewBox="0 0 2887 612" version="1.1" xmlns="http://www.w3.org/2000/svg" xmlns:xlink="http://www.w3.org/1999/xlink" xml:space="preserve" xmlns:serif="http://www.serif.com/" style="fill-rule:evenodd;clip-rule:evenodd;stroke-linecap:round;stroke-linejoin:round;stroke-miterlimit:1.5;"><path id="Chat" d="M114.856,59.424c-89.547,-5.781 -140.494,-38.984 -113.657,-45.53c96.188,-23.46 160.006,-7.743 173.44,-90.776c62.864,-27.322 80.034,3.585 94.561,37.862c55.978,-5.554 131.032,-2.793 195.069,-35.874c102.88,-53.148 171.668,-36.12 263.291,-18.031c-98.79,-335.181 -238.851,-695.043 174.217,-571.473l212.982,-21.723c93.131,-37.229 193.087,-43.225 297.176,-30.31c-90.971,-14.496 -144.605,-21.915 -135.745,-61.957c32.697,-15.308 75.344,2.402 105.959,-20.147c125.62,-92.525 288.159,-170.902 313.579,-76.511c20.961,25.68 18.24,60.509 11.051,97.063c42.049,61.072 41.926,114.622 7.477,162.049l-70.678,52.323c-15.801,-4.267 -25.075,5.63 -61.814,50.015c-38.725,-14.674 -63.833,-23.299 -82.819,-2.254c-20.342,22.55 -47.347,-24.063 -42.305,-69.466l-48.151,9.974c0,-0 -50.056,490.215 -56.718,554.366c-5.494,52.912 122.147,41.975 150.502,53.882c23.177,9.732 -18.535,9.358 -18.535,9.358l-147.266,-0.073c-25.771,-10.382 -39.846,-27.097 -34.47,-54.345l-7.509,-462.727c-46.709,57.664 -101.172,80.508 -171.906,30.286c-51.753,2.534 -100.54,20.587 -150.449,-0.004c-54.662,-22.552 -88.435,-22.231 -110.686,-9.477c13.134,72.874 7.004,108.26 7.36,174.3c0.622,115.428 -7.85,249.306 -66.296,301.522c-43.819,39.148 -105.683,32.178 -197.099,27.381c-162.959,-15.473 -326.391,-15.007 -490.561,10.297Z" style="stroke:#000;stroke-width:4.17px;"/><path id="Poisson" d="M2857.34,285.665l-11.16,73.777c28.945,41.499 37.688,85.446 37.891,130.428c-49.042,85.335 -124.294,124.124 -247.595,77.589c-10.949,35.337 -29.513,52.642 -62.552,35.668c-25.458,-16.329 -40.787,-43.746 -52.012,-75.655c-4.364,-35.881 8.852,-51.325 42.071,-43.516c-8.696,-39.471 -7.624,-87.84 7.641,-131.554c-49.105,31.493 -99.938,61.434 -144.101,98.407c-88.129,73.782 -171.508,124.605 -221.412,139.255c-146.261,7.151 -285.96,-5.213 -425.701,-17.457c-73.643,12.127 -147.759,14.892 -222.171,11.789c-7.323,-3.268 -10.043,-6.988 -9.614,-11.017l-44.137,-1.201c-112.622,-0.652 -327.531,-2.516 -338.928,-5.621c-120.493,-32.828 -166.773,-57.919 -297.647,-9.166c-7.435,2.77 -11.226,5.176 -18.31,8.431c-4.83,2.22 -338.443,0.391 -504.915,-30.187c-74.799,42.428 -140.455,56.171 -182.284,-4.831c-53.187,-9.29 -105.388,-23.925 -156.036,-46.967c-2.814,-6.79 1.501,-13.048 13.287,-18.749l-17.576,-16.589l12.27,-27.036c-7.611,-7.459 -13.256,-14.569 -7.361,-19.62l14.384,-5.024c-7.467,-4.518 -7.021,-9.037 -1.161,-13.556l11.406,-5.786c4.26,-18.219 10.273,-34.27 19.572,-46.261c3.015,-6.131 7.276,-6.929 12.673,-2.872c4.492,10.342 8.229,20.708 11.112,31.098c2.939,10.59 4.99,21.206 6.047,31.852l782.761,-31.852c218.429,-105.281 451.505,-85.953 721.981,-108.245c108.354,-8.931 276.411,-44.173 362.735,-92.925c154.21,-87.092 289.35,-175.648 328.654,-152.435c95.638,56.483 192.09,137.685 341.176,196.195c23.746,-4.847 49.866,19.399 70.534,22.656c13.479,2.124 30.32,8.443 39.711,0.827c89.217,-72.349 63.613,24.347 89.323,49.638c13.227,13.012 30.381,-9.203 39.444,10.512Zm-1006.6,199.61c119.129,-1.077 244.852,-2.685 321.907,-34.557c28.647,-11.85 41.807,-32.749 57.939,-53.759c-139.657,-35.803 -263.935,14.592 -379.846,88.316Z" style="stroke:#000;stroke-width:4.17px;"/><path id="Warior-2" serif:id="Warior 2" d="M-678.63,-593.773c23.548,-48.872 84.347,-70.72 133.58,-47.55c8.697,4.093 36.676,22.339 38.724,33.682c3.885,21.522 -1.494,197.071 -1.821,201.037l-33.481,0.433l-0.766,15.563l28.53,20.505l205.059,0.041l312.17,-14.55c65.998,-13.799 124.74,-23.714 119.365,0.683l-51.417,10.869l-25.472,28.856l-99.033,-1.762c-18.771,-4.577 -53.528,-10.169 -58.742,3.178c-1.752,4.482 -301.388,41.673 -299.927,48.223l-10.712,73.767l-25.923,27.917l-3.254,163.067l-13.937,8.17l-0.424,34.712c130.197,52.688 248.664,106.251 339.487,161.874l0.389,102.755l-7.186,282.391c54.117,38.604 99.125,55.522 139.054,60.352c4.006,5.894 4.404,10.303 1.195,13.226l-155.99,1.004c-1.219,4.616 -10.091,2.498 -14.319,0.281c-11.322,-5.937 -9.033,-11.231 -10.02,-21.346c-3.893,-39.863 -8.387,-56.071 -17.529,-100.191c-18.37,-88.658 -22.632,-87.882 -28.925,-174.545c-1.458,-20.084 -2.113,-40.229 -2.406,-60.364c-0.278,-19.156 0.207,-38.318 0.693,-57.469c-121.221,4.038 -228.022,0.452 -330.327,-60.668c-112.734,76.567 -229.033,158.754 -327.713,213.162c-25.459,27.417 -55.158,50.541 -86.642,70.604c-26.309,16.765 -33.326,19.385 -57.146,35.818c-38.477,26.543 -103.273,104.329 -85.097,142.701c6.773,14.299 -5.71,28.436 -11.877,28.094c-27.125,-1.502 -63.714,9.753 -70.263,0l-2.194,-44.725c71.021,-101.057 149.384,-200.547 266.663,-291.726l110.015,-120.356l155.789,-222.085c19.717,-93.5 16.695,-182.853 -73.102,-256.386l-432.308,1.982c-5.155,5.07 -14.738,7.828 -26.173,9.618c-29.369,3.666 -58.146,4.328 -86.275,1.691c6.205,-8.353 14.179,-15.542 34.537,-14.584l2.263,-9.498c-69.809,15.549 -161.006,-8.667 -101.605,-30.692l278.228,-4.044c60.338,-18.82 148.387,-16.073 235.856,-13.777c39.714,-21.048 82.585,-29.998 127.387,-31.545l90.4,-5.368l3.701,-27.108c-25.792,8.97 -54.485,-18.259 -73.411,-58.501l2.332,-127.416Z" style="stroke:#000;stroke-width:4.17px;"/></svg>