<svg width="116" height="140" viewBox="0 0 116 140" fill="none" xmlns="http://www.w3.org/2000/svg">
<path fill-rule="evenodd" clip-rule="evenodd" d="M29.4833 57.9659C32.3684 62.0061 41.8886 62.488 45.1314 62.4273C47.6947 62.3794 50.6461 61.756 52.3913 61.7855C65.9277 62.0139 74.6427 60.1867 78.4884 70.9966C81.7816 80.2535 88.012 90.3317 94.6182 99.5209C97.6854 103.787 100.82 104.808 103.375 108.823C106.704 114.055 108.552 120.467 110.514 124.899C112.056 128.383 111.969 128.823 112.63 129.554C113.434 130.444 114.03 131.551 114.021 132.932C114.013 134.012 117.052 137.399 115.362 138.881C113.891 140.169 111.539 139.679 108.34 137.443C107.852 137.102 100.073 137.443 100.055 136.034C100.022 133.393 109.003 135.845 107.761 131.283C107.151 129.043 101.598 120.258 93.338 109.725C91.2732 107.092 88.3888 105.995 86.1782 103.775C80.2752 97.8479 75.2785 92.2668 74.1363 91.0086C71.0525 87.6118 68.3977 84.1631 68.3977 84.1631C68.3977 84.1631 49.258 102.436 49.1845 105.348C49.0954 108.884 31.7888 129.861 29.6327 131.289C29.0187 131.696 30.7873 136.395 28.6608 137.379C27.5995 137.87 24.2895 136.795 23.9044 137.165C23.2484 137.796 23.1998 139.862 22.1568 139.509C21.5199 139.293 19.7449 139.201 17.6357 139.1C17.4594 139.091 17.2324 138.951 17.1001 139.074C14.8165 141.201 15.4361 139.006 14.7404 138.95C14.4328 138.925 5.27035 139.56 5.75804 138.186C5.97478 137.575 8.67599 137.431 8.01594 136.484C7.21757 135.338 8.34575 134.707 11.9228 134.964C12.6896 135.019 21.0415 130.142 21.751 129.371C22.4858 128.571 23.9499 114.67 23.6061 105.093C23.4291 100.162 21.4696 97.0042 21.4213 96.0599C21.3622 94.9025 22.2674 91.023 21.3546 88.1198C19.9136 83.5363 20.2659 80.5809 20.6981 79.8417C20.8857 79.5208 18.9392 79.8267 17.5645 79.8071C16.1897 79.7876 18.1124 83.877 12.923 85.2322C9.02536 86.25 6.78409 84.9937 6.78409 84.9937C6.78409 84.9937 7.64347 87.9015 4.31306 87.5638C0.982653 87.226 0.29787 83.7064 0.994374 82.665C1.69079 81.6235 1.86858 82.1137 0.777201 80.3126C-0.819362 77.678 0.0627723 70.1673 3.24926 68.2111C4.89693 67.1996 6.45135 66.9999 9.54261 67.006C10.0469 67.0069 10.7575 67.4177 11.1707 67.0231C12.4379 65.8132 13.363 66.6111 14.0913 66.981C14.2616 67.0675 15.9271 65.8944 16.9693 66.8264C18.2954 68.0122 21.1898 67.7013 20.9605 65.5781C20.5354 61.6394 21.6337 53.1967 22.3904 51.8867C22.8585 51.0765 22.8307 42.4608 22.0311 39.9716C20.2523 34.4346 17.0834 15.4381 14.5332 15.3417C11.983 15.2452 11.9575 11.8142 9.76582 11.255C7.57419 10.6958 6.8233 9.17138 8.61756 9.49386C11.6838 10.0451 13.5376 12.7814 12.623 9.00841C11.7084 5.23547 10.092 3.35822 11.2827 1.60455C11.4004 1.43116 12.0897 1.78656 12.0301 1.58439C11.5521 -0.0348418 14.1194 -0.556659 15.5473 0.698029C16.0232 1.11634 15.6752 1.74709 15.9754 2.58028C17.3731 6.45939 17.065 5.60027 17.0389 3.87245C17.0129 2.14464 16.4976 1.09721 17.4505 2.24228C18.4035 3.38735 18.6002 3.715 19.3561 8.97972C19.4203 9.42621 19.7284 10.6228 20.1026 14.1888C20.7606 20.4586 27.0838 30.4824 28.4886 35.1545C29.8935 39.8268 28.6319 53.4617 29.4833 57.9659ZM28.4536 121.266C30.9923 117.217 33.6049 111.744 37.1322 108.323C39.3629 106.16 40.927 103.799 40.8976 100.555L45.5574 93.567L50.0733 82.6588L44.3662 84.2824C43.0499 87.4955 39.2517 88.404 33.3972 87.4031L31.8287 87.8493L29.0166 91.3746C30.7504 105.009 30.695 114.764 28.4806 119.835L28.4536 121.266Z" fill="black"/>
</svg>
