<svg width="64" height="78" viewBox="0 0 64 78" fill="none" xmlns="http://www.w3.org/2000/svg">
<path fill-rule="evenodd" clip-rule="evenodd" d="M16.2998 31.9645C17.8866 34.1866 23.1227 34.4517 24.9063 34.4183C26.316 34.3919 27.9393 34.0491 28.8992 34.0653C36.3442 34.1909 41.1375 33.1859 43.2526 39.1314C45.0639 44.2227 48.4906 49.7657 52.124 54.8197C53.8109 57.1662 55.5352 57.7278 56.9403 59.9361C58.771 62.8135 59.7874 66.3402 60.8664 68.7779C61.7146 70.6939 61.6669 70.9358 62.0305 71.3381C62.4729 71.8275 62.8007 72.4361 62.7954 73.196C62.7912 73.7901 64.4628 75.653 63.5329 76.4676C62.7243 77.1761 61.4307 76.9066 59.6708 75.677C59.4026 75.4896 55.1239 75.6767 55.1142 74.9022C55.0961 73.4495 60.0358 74.7981 59.3527 72.2888C59.0173 71.057 55.963 66.2254 51.4199 60.4319C50.2842 58.9837 48.6978 58.3804 47.482 57.1595C44.2353 53.8996 41.4872 50.83 40.8589 50.138C39.1629 48.2697 37.7027 46.373 37.7027 46.373C37.7027 46.373 27.1759 56.423 27.1355 58.0246C27.0865 59.9692 17.5678 71.5066 16.382 72.2923C16.0443 72.5161 17.017 75.1004 15.8474 75.6416C15.2637 75.9117 13.4432 75.3203 13.2314 75.5239C12.8706 75.8708 12.8439 77.0072 12.2702 76.813C11.9199 76.6944 10.9437 76.644 9.78364 76.5882C9.68666 76.5835 9.56181 76.5063 9.48906 76.574C8.23308 77.7436 8.57383 76.5368 8.19118 76.5056C8.02202 76.4918 2.98268 76.8411 3.2509 76.0856C3.37011 75.7497 4.85578 75.6705 4.49275 75.1495C4.05365 74.5194 4.67415 74.1719 6.64153 74.3135C7.06328 74.3439 11.6568 71.6616 12.047 71.237C12.4511 70.7975 13.2565 63.1515 13.0673 57.8842C12.97 55.1721 11.8923 53.4356 11.8657 52.9162C11.8332 52.2796 12.331 50.1459 11.829 48.5492C11.0364 46.0282 11.2302 44.4028 11.468 43.9962C11.5711 43.8197 10.5005 43.9879 9.74444 43.9772C8.98834 43.9664 10.0458 46.2156 7.19164 46.961C5.04793 47.5207 3.81523 46.8298 3.81523 46.8298C3.81523 46.8298 4.2879 48.4291 2.45617 48.2433C0.624444 48.0575 0.247813 46.1218 0.63089 45.549C1.01392 44.9762 1.1117 45.2458 0.511445 44.2552C-0.366665 42.8062 0.118509 38.6753 1.87108 37.5994C2.7773 37.043 3.63223 36.9332 5.33242 36.9365C5.60975 36.9371 6.0006 37.163 6.22788 36.946C6.92483 36.2805 7.43366 36.7194 7.83418 36.9228C7.92788 36.9704 8.84387 36.3252 9.41711 36.8378C10.1465 37.49 11.7384 37.319 11.6123 36.1512C11.3785 33.9849 11.9825 29.3414 12.3987 28.6209C12.6561 28.1754 12.6409 23.4367 12.2011 22.0676C11.2228 19.0223 9.47986 8.57421 8.07724 8.52117C6.67461 8.46813 6.66058 6.58109 5.45518 6.27352C4.24979 5.96595 3.8368 5.12751 4.82364 5.30488C6.51009 5.60804 7.52964 7.11304 7.02664 5.03788C6.5236 2.96276 5.63459 1.93027 6.28945 0.965756C6.3542 0.870389 6.73334 1.06586 6.70054 0.954665C6.43762 0.064089 7.84968 -0.222911 8.63498 0.467168C8.89676 0.697242 8.70537 1.04415 8.87046 1.5024C9.63922 3.63592 9.46972 3.1634 9.4554 2.2131C9.44109 1.2628 9.15765 0.686719 9.68178 1.31651C10.2059 1.94629 10.3141 2.1265 10.7299 5.0221C10.7651 5.26767 10.9346 5.9258 11.1404 7.88711C11.5023 11.3355 14.9801 16.8486 15.7527 19.4182C16.5254 21.988 15.8315 29.4872 16.2998 31.9645ZM15.7335 66.7797C17.1297 64.5524 18.5667 61.5423 20.5067 59.661C21.7336 58.4712 22.5938 57.1729 22.5777 55.3887L25.1406 51.5451L27.6243 45.5456L24.4854 46.4386C23.7614 48.2058 21.6724 48.7055 18.4525 48.1549L17.5897 48.4004L16.0431 50.3393C16.9967 57.8383 16.9663 63.2033 15.7483 65.9927L15.7335 66.7797Z" fill="black"/>
</svg>
