<?xml version="1.0" encoding="UTF-8" standalone="no"?><!DOCTYPE svg PUBLIC "-//W3C//DTD SVG 1.1//EN" "http://www.w3.org/Graphics/SVG/1.1/DTD/svg11.dtd"><svg width="100%" height="100%" viewBox="0 0 1349 1629" version="1.1" xmlns="http://www.w3.org/2000/svg" xmlns:xlink="http://www.w3.org/1999/xlink" xml:space="preserve" xmlns:serif="http://www.serif.com/" style="fill-rule:evenodd;clip-rule:evenodd;stroke-linecap:round;stroke-linejoin:round;stroke-miterlimit:1.5;"><path id="Triangle" d="M344.198,674.701c33.478,46.881 143.947,52.473 181.576,51.769c29.743,-0.556 63.99,-7.79 84.241,-7.448c157.072,2.65 258.198,-18.552 302.823,106.883c38.213,107.414 110.508,224.358 187.165,330.986c35.59,49.505 71.968,61.354 101.611,107.944c38.625,60.706 60.067,135.111 82.833,186.539c17.894,40.423 16.887,45.527 24.559,54.015c9.333,10.326 16.249,23.166 16.137,39.198c-0.088,12.533 35.178,51.835 15.56,69.022c-17.06,14.948 -44.352,9.262 -81.481,-16.679c-5.659,-3.955 -95.929,-0.008 -96.133,-16.347c-0.383,-30.648 103.834,-2.197 89.421,-55.136c-7.076,-25.988 -71.514,-127.924 -167.362,-250.152c-23.96,-30.555 -57.429,-43.283 -83.081,-69.04c-68.496,-68.777 -126.476,-133.538 -139.73,-148.137c-35.783,-39.416 -66.589,-79.433 -66.589,-79.433c-0,0 -222.091,212.032 -222.943,245.821c-1.034,41.027 -201.854,284.438 -226.873,301.014c-7.125,4.721 13.397,59.244 -11.278,70.663c-12.315,5.698 -50.723,-6.78 -55.191,-2.483c-7.612,7.319 -8.176,31.294 -20.279,27.197c-7.391,-2.502 -27.987,-3.567 -52.461,-4.744c-2.046,-0.099 -4.68,-1.728 -6.215,-0.299c-26.498,24.675 -19.309,-0.786 -27.382,-1.443c-3.569,-0.291 -109.887,7.077 -104.228,-8.862c2.515,-7.085 33.859,-8.756 26.2,-19.748c-9.264,-13.295 3.827,-20.625 45.334,-17.638c8.898,0.641 105.81,-55.95 114.043,-64.906c8.526,-9.274 25.516,-170.586 21.526,-281.713c-2.054,-57.219 -24.791,-93.855 -25.351,-104.813c-0.686,-13.43 9.817,-58.446 -0.775,-92.134c-16.721,-53.186 -12.633,-87.479 -7.617,-96.057c2.177,-3.723 -20.41,-0.174 -36.362,-0.401c-15.952,-0.226 6.358,47.226 -53.858,62.951c-45.227,11.81 -71.234,-2.767 -71.234,-2.767c0,-0 9.972,33.741 -28.673,29.822c-38.645,-3.92 -46.591,-44.76 -38.509,-56.844c8.081,-12.085 10.144,-6.397 -2.52,-27.296c-18.526,-30.571 -8.29,-117.723 28.685,-140.422c19.119,-11.737 37.156,-14.055 73.026,-13.984c5.851,0.011 14.097,4.778 18.892,0.199c14.704,-14.04 25.439,-4.781 33.889,-0.489c1.977,1.004 21.302,-12.608 33.396,-1.794c15.388,13.76 48.973,10.152 46.313,-14.485c-4.933,-45.703 7.811,-143.67 16.592,-158.87c5.431,-9.401 5.109,-109.375 -4.17,-138.259c-20.64,-64.25 -57.411,-284.679 -87.003,-285.798c-29.592,-1.119 -29.888,-40.931 -55.319,-47.42c-25.431,-6.489 -34.144,-24.178 -13.324,-20.436c35.58,6.396 57.09,38.148 46.478,-5.633c-10.613,-43.78 -29.369,-65.563 -15.553,-85.912c1.366,-2.012 9.365,2.112 8.673,-0.234c-5.547,-18.789 24.244,-24.844 40.812,-10.285c5.523,4.854 1.485,12.173 4.968,21.841c16.219,45.012 12.643,35.043 12.341,14.994c-0.302,-20.049 -6.282,-32.203 4.776,-18.916c11.058,13.287 13.34,17.089 22.112,78.179c0.744,5.181 4.32,19.066 8.662,60.445c7.635,72.752 81.007,189.065 97.308,243.279c16.302,54.215 1.663,212.431 11.542,264.696Zm-11.948,734.517c29.458,-46.992 59.774,-110.497 100.704,-150.188c25.884,-25.101 44.033,-52.493 43.692,-90.134l54.071,-81.092l52.401,-126.575l-66.223,18.84c-15.274,37.284 -59.347,47.826 -127.281,36.211l-18.201,5.178l-32.63,40.906c20.118,158.212 19.476,271.401 -6.22,330.25l-0.313,16.604Z" style="stroke:#000;stroke-width:4.17px;"/></svg>