<?xml version="1.0" encoding="UTF-8" standalone="no"?><!DOCTYPE svg PUBLIC "-//W3C//DTD SVG 1.1//EN" "http://www.w3.org/Graphics/SVG/1.1/DTD/svg11.dtd"><svg width="100%" height="100%" viewBox="0 0 1187 1565" version="1.1" xmlns="http://www.w3.org/2000/svg" xmlns:xlink="http://www.w3.org/1999/xlink" xml:space="preserve" xmlns:serif="http://www.serif.com/" style="fill-rule:evenodd;clip-rule:evenodd;stroke-linecap:round;stroke-linejoin:round;stroke-miterlimit:1.5;"><path id="Warior-1" serif:id="Warior 1" d="M572.443,22.037l1.635,146.961l16.669,147.877l79.165,58.422l-2.547,94.086l-14.309,27.413l-0.232,25.669l-13.048,11.645l-33.546,1.719l0.022,32.214l113.969,124.004c5.246,17.399 3.735,34.234 -0.849,50.813c-7.764,9.943 -16.035,18.704 -26.26,22.906l-0.239,98.553c-5.067,-0.207 -9.669,2.073 -12.275,14.993l-1.588,58.938l-5.729,2.171l-0.116,30.008c122.706,35.679 204.281,62.284 287.769,89.311c16.89,6.358 33.344,14.759 45.913,41.386l28.428,325.102c12.153,14.561 48.418,60.706 88.073,63.255c48.888,3.141 67.111,23.735 58.964,31.742l-186.417,-0.439l2.248,-112.913c-56.133,-107.527 -88.792,-205.184 -77.505,-254.373c-111.953,-12.406 -225.038,-0.025 -316.052,-41.105c-56.181,48.759 -134.833,97.02 -254.015,144.384l-266.097,178.573l6.155,58.487l57.992,68.817l-64.861,-0.447c-0,-0 -80.629,-92.474 -81.651,-98.235c-2.405,-13.559 163.617,-183.851 204.941,-203.709c21.387,-10.277 114.711,-64.816 115.142,-81.237c0.548,-20.868 122.44,-131.099 122.757,-134.362c2.94,-30.189 65.742,-114.567 85.225,-126.673l2.073,-110.474l-26.86,-38.044l-0.987,-75.353l-6.692,-3.755l0.424,-59.604l7.313,-3.513l-1.435,-41.769l-15.728,-2.901l-12.03,13.868l-9.746,-0.358l0.113,-12.859l23.934,-23.334l1.416,-71.985c-10.986,-2.997 -19.469,-16.006 -26.359,-35.382l0.687,-95.955c2.931,-12.576 12.871,-21.147 27.267,-27.171l39.223,-1.159l-0.96,-194.412l-12.28,-9.295c-0,-0 -4.677,-102.507 -2.763,-112.299c4.647,-23.765 48.13,0.378 55.659,9.798Z" style="stroke:#000;stroke-width:4.17px;"/><path id="Arbre" d="M1761.33,1132.57c1.223,-0.985 4.387,-3.361 9.869,-6.658c20.913,-12.579 28.224,-8.958 9.778,6.314c-18.446,15.271 -28.643,26.653 -38.821,60.77c-10.178,34.117 -73.736,243.2 -96.419,280.317c-7.975,13.049 -2.648,29.737 -8.15,46.312c-10.149,30.571 -30.438,63.857 -50.539,95.089c-8.98,13.952 -3.9,25.93 -7.314,37.015c-8.373,27.183 -15.784,48.994 -27.909,81.363c-10.718,28.615 -21.01,70.565 -16.202,110.232c2.849,23.504 18.589,45.695 22.015,65.225c3.127,17.819 9.294,48.324 4.876,85.867c-8.595,73.048 -34.915,165.493 -45.11,192.201c-15.436,40.435 -44.805,99.485 -45.263,164.375c-0.458,64.891 -0.593,93.137 -19.801,138.556c-19.209,45.418 -46.025,96.959 -47.072,134.11c-1.046,37.152 -5.676,43.836 7.863,55.859c13.539,12.022 14.227,4.195 14.227,21.848c0,17.653 -20.334,19.354 -27.794,20.396c-7.461,1.043 -46.941,8.542 -46.689,-16.304c0.252,-24.845 -1.472,-44.217 0.884,-59.96c2.355,-15.743 1.125,-14.909 10.02,-33.862c8.896,-18.953 5.857,0.322 7.1,-38.693c0.752,-23.578 -2.623,-78.63 2.544,-122.692c3.382,-28.847 11.458,-41.617 10.717,-52.499c-1.873,-27.503 2.707,-47.758 0.797,-62.467c-1.91,-14.709 -15.776,1.815 -14.661,-18.318c1.115,-20.133 -3.963,-14.282 2.99,-24.745c4.45,-6.697 5.152,-4.364 4.493,-6.867c-0.371,-1.408 -1.172,-4.344 -1.979,-11.273c-2.245,-19.254 -6.671,-20.489 -15.563,-36.676c-8.892,-16.187 -1.869,-50.697 -62.087,-49.764c-60.218,0.933 -237.917,-3.285 -237.917,-3.285c0,-0 -95.799,-44.636 -16.414,-100.322c79.385,-55.687 214.03,-111.441 243.685,-140.31c29.655,-28.869 55.062,-89.126 49.681,-120.259c-5.38,-31.134 -22.649,-101.922 -20.571,-125.267c2.078,-23.344 -33.296,-131.725 -53.492,-170.655c-20.346,-39.219 -92.289,-254.437 -96.6,-281.294c-1.63,-10.158 0.424,-23.024 -5.49,-40.137c-11.97,-34.637 -44.218,-77.761 -47.783,-84.791c-5.728,-11.292 0.83,-28.14 8.682,-14.92c10.79,18.167 25.753,29.029 12.314,0.69c-11.21,-23.637 -19.823,-47.373 1.708,-26.714c3.858,3.703 7.894,6.745 8.487,10.096c2.258,12.748 6.599,10.723 0.197,-6.152c-8.561,-22.57 -12.641,-43.964 13.452,-13.743c24.437,28.304 30.251,94.187 39.56,68.333c9.309,-25.855 23.247,-30.766 19.606,-10.497c-3.641,20.27 -18.73,76.803 10.733,134.737c29.462,57.934 66.5,205.88 109.197,250.046c42.698,44.167 67.939,68.988 65.028,18.445c-0.137,-2.393 1.325,-5.76 -0.634,-7.316c-36.134,-28.723 -42.272,-134.933 3.409,-167.24c5.187,-3.669 -0.819,-19.443 6.932,-29.659c5.644,-7.44 24.427,-10.512 31.499,-10.775c3.728,-0.138 21.394,3.92 25.519,9.854c5.945,8.552 -1.422,20.196 5.492,22.036c31.354,8.343 73.172,110.595 5.128,174.802c-3.464,3.269 3.749,36.79 15.332,42.435c10.628,5.179 24.972,-16.733 37.365,-29.428c10.913,-11.179 26.766,-24.07 36.635,-37.616c4.045,-5.552 54.285,-112.526 62.788,-126.627c8.503,-14.102 73.661,-157.069 67.251,-174.008c-6.409,-16.939 -28.018,-54.911 -32.689,-59.273c-4.672,-4.362 -4.171,-27.136 10.782,-8.652c14.952,18.484 19.026,33.5 30.941,17.191c11.915,-16.309 68.156,-70.305 68.156,-70.305c0,0 38.269,-20.181 12.64,20.213c-18.913,29.807 -30.852,38.067 -27.409,35.296Zm-380.138,944.29c0,-0 37.97,40.853 19.872,47.515c-1.69,0.623 -27.83,8.504 -56.632,7.149c-37.771,-1.778 -80.08,-13.051 -77.429,-13.221c11.136,-0.714 109.433,-36.753 114.189,-41.443Z" style="stroke:#000;stroke-width:4.17px;"/><path id="Triangle" d="M9.877,1728.27c33.478,46.881 143.947,52.473 181.577,51.769c29.742,-0.556 63.989,-7.79 84.24,-7.448c157.072,2.65 258.198,-18.552 302.823,106.883c38.213,107.414 110.508,224.358 187.165,330.986c35.59,49.505 71.968,61.354 101.611,107.944c38.625,60.706 60.067,135.11 82.833,186.539c17.894,40.423 16.887,45.527 24.559,54.015c9.333,10.326 16.249,23.166 16.137,39.198c-0.088,12.533 35.178,51.835 15.56,69.022c-17.06,14.947 -44.352,9.262 -81.481,-16.68c-5.659,-3.954 -95.929,-0.007 -96.133,-16.346c-0.383,-30.648 103.834,-2.197 89.421,-55.136c-7.076,-25.989 -71.514,-127.924 -167.362,-250.152c-23.96,-30.555 -57.429,-43.283 -83.081,-69.04c-68.496,-68.777 -126.476,-133.539 -139.73,-148.138c-35.783,-39.415 -66.589,-79.432 -66.589,-79.432c-0,-0 -222.091,212.032 -222.943,245.821c-1.034,41.026 -201.854,284.438 -226.873,301.014c-7.125,4.721 13.397,59.244 -11.278,70.662c-12.315,5.699 -50.723,-6.779 -55.191,-2.482c-7.612,7.318 -8.176,31.294 -20.279,27.197c-7.391,-2.502 -27.987,-3.567 -52.461,-4.745c-2.046,-0.098 -4.68,-1.728 -6.215,-0.298c-26.498,24.675 -19.309,-0.786 -27.382,-1.443c-3.569,-0.291 -109.887,7.077 -104.228,-8.862c2.515,-7.085 33.859,-8.757 26.2,-19.748c-9.263,-13.296 3.827,-20.625 45.334,-17.638c8.898,0.64 105.81,-55.95 114.043,-64.906c8.526,-9.274 25.516,-170.586 21.526,-281.713c-2.054,-57.219 -24.791,-93.855 -25.351,-104.813c-0.686,-13.43 9.817,-58.446 -0.775,-92.134c-16.721,-53.186 -12.633,-87.479 -7.617,-96.057c2.177,-3.723 -20.41,-0.174 -36.362,-0.401c-15.952,-0.226 6.358,47.226 -53.858,62.951c-45.227,11.81 -71.234,-2.767 -71.234,-2.767c0,-0 9.972,33.741 -28.673,29.821c-38.645,-3.92 -46.591,-44.759 -38.509,-56.844c8.081,-12.084 10.144,-6.397 -2.52,-27.295c-18.526,-30.571 -8.29,-117.723 28.685,-140.422c19.119,-11.737 37.156,-14.056 73.026,-13.985c5.851,0.012 14.097,4.778 18.892,0.2c14.704,-14.04 25.439,-4.781 33.889,-0.489c1.977,1.004 21.302,-12.608 33.396,-1.794c15.388,13.76 48.973,10.152 46.313,-14.486c-4.933,-45.702 7.811,-143.669 16.592,-158.87c5.431,-9.4 5.109,-109.374 -4.17,-138.258c-20.64,-64.25 -57.411,-284.68 -87.003,-285.798c-29.592,-1.119 -29.888,-40.931 -55.319,-47.42c-25.431,-6.489 -34.144,-24.178 -13.324,-20.436c35.58,6.396 57.09,38.147 46.478,-5.633c-10.612,-43.78 -29.369,-65.563 -15.553,-85.912c1.366,-2.012 9.365,2.112 8.673,-0.234c-5.547,-18.789 24.244,-24.844 40.812,-10.285c5.523,4.853 1.485,12.173 4.968,21.84c16.219,45.012 12.643,35.044 12.341,14.995c-0.302,-20.049 -6.282,-32.203 4.776,-18.916c11.058,13.286 13.34,17.088 22.112,78.179c0.744,5.181 4.32,19.066 8.662,60.445c7.635,72.752 81.007,189.064 97.308,243.279c16.302,54.215 1.663,212.431 11.542,264.696Zm-11.948,734.517c29.458,-46.992 59.774,-110.497 100.704,-150.188c25.884,-25.101 44.033,-52.494 43.692,-90.134l54.071,-81.093l52.401,-126.575l-66.223,18.84c-15.274,37.285 -59.347,47.827 -127.281,36.211l-18.201,5.179l-32.63,40.906c20.118,158.212 19.476,271.4 -6.22,330.25l-0.313,16.604Z" style="stroke:#000;stroke-width:4.17px;"/></svg>