<svg width="107" height="140" viewBox="0 0 107 140" fill="none" xmlns="http://www.w3.org/2000/svg">
<path fill-rule="evenodd" clip-rule="evenodd" d="M51.1674 1.79005L51.314 14.974L52.8094 28.2402L59.9114 33.4812L59.6829 41.9218L58.3992 44.381L58.3784 46.6838L57.2078 47.7285L54.1984 47.8827L54.2004 50.7726L64.4246 61.8971C64.8952 63.458 64.7597 64.9682 64.3485 66.4556C63.6519 67.3475 62.9099 68.1335 61.9927 68.5105L61.9712 77.3517C61.5167 77.3331 61.1038 77.5377 60.87 78.6968L60.7276 83.9841L60.2136 84.1789L60.2032 86.8709C71.2112 90.0717 78.5294 92.4585 86.0191 94.8831C87.5344 95.4535 89.0105 96.2071 90.138 98.5958L92.6883 127.761C93.7786 129.067 97.0319 133.207 100.589 133.436C104.975 133.717 106.61 135.565 105.879 136.283L89.1555 136.244L89.3572 126.114C84.3215 116.468 81.3916 107.707 82.4042 103.294C72.3608 102.181 62.2159 103.292 54.0509 99.6068C49.0109 103.981 41.955 108.311 31.2631 112.56L7.39134 128.579L7.94351 133.826L13.146 140L7.32729 139.96C7.32729 139.96 0.0940045 131.664 0.00232025 131.147C-0.213434 129.931 14.6805 114.654 18.3877 112.872C20.3064 111.95 28.6785 107.058 28.7172 105.584C28.7663 103.712 39.7014 93.8235 39.7298 93.5308C39.9935 90.8225 45.6275 83.2529 47.3754 82.1669L47.5614 72.2562L45.1517 68.8432L45.0632 62.0832L44.4628 61.7464L44.5009 56.3993L45.1569 56.0841L45.0282 52.337L43.6172 52.0767L42.538 53.3208L41.6637 53.2887L41.6738 52.1351L43.821 50.0418L43.948 43.584C42.9624 43.3151 42.2014 42.1481 41.5833 40.4099L41.6449 31.8017C41.9079 30.6735 42.7996 29.9046 44.0911 29.3641L47.6098 29.2602L47.5237 11.8193L46.422 10.9855C46.422 10.9855 46.0024 1.78951 46.1742 0.911064C46.591 -1.22091 50.4919 0.944975 51.1674 1.79005Z" fill="black"/>
</svg>
