<svg width="160" height="140" viewBox="0 0 160 140" fill="none" xmlns="http://www.w3.org/2000/svg">
<path fill-rule="evenodd" clip-rule="evenodd" d="M73.324 6.09476C75.8495 0.853257 82.3701 -1.49004 87.6504 0.994934C88.5831 1.43391 91.5838 3.39078 91.8035 4.60742C92.2202 6.91564 91.6433 25.7431 91.6082 26.1685L88.0174 26.2149L87.9352 27.884L90.995 30.0833L112.988 30.0877L146.468 28.5271C153.546 27.0472 159.846 25.9838 159.269 28.6004L153.755 29.766L151.023 32.8609L140.402 32.6719C138.389 32.1809 134.661 31.5812 134.102 33.0127C133.914 33.4935 101.778 37.4821 101.935 38.1847L100.786 46.096L98.0057 49.0901L97.6568 66.5791L96.162 67.4552L96.1165 71.1781C110.08 76.8288 122.786 82.5734 132.526 88.539L132.568 99.5594L131.797 129.846C137.601 133.986 142.428 135.801 146.711 136.319C147.14 136.951 147.183 137.423 146.839 137.737L130.109 137.845C129.978 138.34 129.027 138.113 128.573 137.875C127.359 137.238 127.605 136.67 127.499 135.585C127.081 131.31 126.599 129.572 125.619 124.84C123.649 115.332 123.192 115.415 122.517 106.12C122.36 103.966 122.29 101.806 122.259 99.6461C122.229 97.5917 122.281 95.5366 122.333 93.4825C109.332 93.9156 97.8778 93.5311 86.9055 86.976C74.8148 95.1877 62.3418 104.002 51.7584 109.837C49.028 112.778 45.8428 115.258 42.4661 117.41C39.6446 119.208 38.892 119.489 36.3373 121.251C32.2106 124.098 25.2613 132.441 27.2106 136.556C27.937 138.089 26.5982 139.606 25.9368 139.569C23.0277 139.408 19.1035 140.615 18.4012 139.569L18.1659 134.772C25.7828 123.934 34.1872 113.264 46.7653 103.485L58.5644 90.5766L75.2727 66.758C77.3873 56.7303 77.0632 47.1471 67.4325 39.2608L21.0677 39.4734C20.5148 40.0171 19.4871 40.3128 18.2607 40.5048C15.1109 40.8981 12.0245 40.9691 9.00772 40.6862C9.6732 39.7903 10.5284 39.0193 12.7118 39.1221L12.9545 38.1034C5.46752 39.7711 -4.31332 37.1738 2.05741 34.8118L31.8972 34.378C38.3685 32.3596 47.8117 32.6542 57.1927 32.9004C61.452 30.643 66.0499 29.6832 70.8549 29.5173L80.5502 28.9416L80.9472 26.0342C78.181 26.9963 75.1037 24.076 73.0739 19.76L73.324 6.09476Z" fill="black"/>
</svg>
