<?xml version="1.0" encoding="UTF-8" standalone="no"?><!DOCTYPE svg PUBLIC "-//W3C//DTD SVG 1.1//EN" "http://www.w3.org/Graphics/SVG/1.1/DTD/svg11.dtd"><svg width="100%" height="100%" viewBox="0 0 1490 1310" version="1.1" xmlns="http://www.w3.org/2000/svg" xmlns:xlink="http://www.w3.org/1999/xlink" xml:space="preserve" xmlns:serif="http://www.serif.com/" style="fill-rule:evenodd;clip-rule:evenodd;stroke-linecap:round;stroke-linejoin:round;stroke-miterlimit:1.5;"><path id="Chat" d="M1479.25,712.108c-89.547,-5.782 -140.494,-38.984 -113.657,-45.53c96.188,-23.46 160.006,-7.743 173.44,-90.777c62.864,-27.322 80.034,3.586 94.561,37.863c55.978,-5.555 131.032,-2.794 195.069,-35.875c102.88,-53.147 171.668,-36.12 263.291,-18.03c-98.79,-335.182 -238.851,-695.043 174.218,-571.473l212.981,-21.723c93.131,-37.229 193.087,-43.226 297.176,-30.311c-90.971,-14.496 -144.604,-21.914 -135.745,-61.956c32.697,-15.308 75.344,2.402 105.959,-20.148c125.62,-92.524 288.159,-170.901 313.579,-76.51c20.961,25.679 18.24,60.508 11.051,97.063c42.049,61.071 41.926,114.621 7.477,162.049l-70.678,52.322c-15.801,-4.267 -25.075,5.63 -61.814,50.015c-38.725,-14.673 -63.833,-23.299 -82.819,-2.253c-20.342,22.55 -47.347,-24.063 -42.305,-69.466l-48.151,9.973c0,0 -50.056,490.215 -56.718,554.367c-5.494,52.911 122.147,41.974 150.502,53.881c23.177,9.732 -18.535,9.358 -18.535,9.358l-147.266,-0.072c-25.771,-10.382 -39.846,-27.098 -34.47,-54.345l-7.509,-462.727c-46.709,57.664 -101.172,80.508 -171.906,30.286c-51.753,2.533 -100.54,20.587 -150.449,-0.004c-54.662,-22.553 -88.435,-22.231 -110.686,-9.478c13.134,72.875 7.004,108.261 7.36,174.301c0.622,115.427 -7.85,249.306 -66.296,301.521c-43.819,39.149 -105.683,32.179 -197.099,27.382c-162.959,-15.473 -326.391,-15.008 -490.561,10.297Z" style="stroke:#000;stroke-width:4.17px;"/><path id="Poisson" d="M4221.73,938.348l-11.16,73.778c28.946,41.498 37.688,85.445 37.891,130.427c-49.042,85.335 -124.294,124.125 -247.595,77.59c-10.949,35.337 -29.513,52.641 -62.552,35.667c-25.458,-16.329 -40.787,-43.745 -52.012,-75.655c-4.364,-35.881 8.852,-51.325 42.071,-43.515c-8.696,-39.471 -7.624,-87.841 7.641,-131.555c-49.105,31.493 -99.938,61.434 -144.101,98.407c-88.129,73.783 -171.507,124.606 -221.412,139.256c-146.261,7.151 -285.96,-5.214 -425.7,-17.457c-73.644,12.126 -147.76,14.892 -222.172,11.789c-7.323,-3.268 -10.043,-6.988 -9.614,-11.018l-44.137,-1.2c-112.622,-0.652 -327.531,-2.517 -338.928,-5.622c-120.493,-32.828 -166.773,-57.918 -297.647,-9.165c-7.435,2.77 -11.226,5.176 -18.31,8.431c-4.83,2.219 -338.443,0.391 -504.915,-30.188c-74.799,42.429 -140.455,56.171 -182.284,-4.831c-53.187,-9.29 -105.388,-23.925 -156.036,-46.967c-2.814,-6.789 1.501,-13.047 13.287,-18.748l-17.576,-16.589l12.27,-27.037c-7.611,-7.459 -13.256,-14.568 -7.361,-19.62l14.384,-5.023c-7.467,-4.519 -7.021,-9.038 -1.161,-13.556l11.406,-5.787c4.26,-18.219 10.273,-34.27 19.572,-46.261c3.015,-6.13 7.276,-6.929 12.673,-2.872c4.492,10.343 8.229,20.708 11.112,31.099c2.939,10.59 4.99,21.206 6.048,31.852l782.76,-31.852c218.429,-105.281 451.505,-85.953 721.981,-108.246c108.354,-8.931 276.411,-44.172 362.735,-92.925c154.21,-87.091 289.35,-175.647 328.654,-152.435c95.638,56.483 192.09,137.685 341.176,196.196c23.746,-4.848 49.867,19.398 70.534,22.655c13.479,2.124 30.32,8.443 39.711,0.828c89.217,-72.349 63.613,24.346 89.323,49.638c13.227,13.012 30.381,-9.204 39.444,10.511Zm-1006.6,199.61c119.129,-1.076 244.852,-2.684 321.907,-34.557c28.647,-11.849 41.807,-32.748 57.939,-53.759c-139.657,-35.803 -263.935,14.593 -379.846,88.316Z" style="stroke:#000;stroke-width:4.17px;"/><path id="Warior-2" serif:id="Warior 2" d="M685.76,58.911c23.548,-48.872 84.347,-70.721 133.58,-47.551c8.697,4.093 36.676,22.339 38.724,33.683c3.885,21.522 -1.494,197.07 -1.821,201.037l-33.481,0.432l-0.766,15.563l28.53,20.506l205.059,0.041l312.17,-14.551c65.998,-13.798 124.74,-23.714 119.365,0.684l-51.417,10.868l-25.472,28.857l-99.033,-1.762c-18.771,-4.578 -53.528,-10.17 -58.742,3.177c-1.752,4.483 -301.388,41.673 -299.927,48.224l-10.712,73.766l-25.923,27.917l-3.253,163.068l-13.938,8.169l-0.424,34.712c130.198,52.688 248.664,106.251 339.487,161.874l0.389,102.755l-7.186,282.391c54.117,38.605 99.125,55.523 139.054,60.353c4.006,5.893 4.404,10.302 1.195,13.226l-155.99,1.004c-1.219,4.615 -10.091,2.498 -14.319,0.281c-11.322,-5.937 -9.033,-11.232 -10.02,-21.346c-3.893,-39.864 -8.387,-56.072 -17.529,-100.192c-18.37,-88.657 -22.632,-87.882 -28.925,-174.544c-1.458,-20.085 -2.113,-40.229 -2.406,-60.365c-0.278,-19.155 0.207,-38.317 0.693,-57.469c-121.221,4.038 -228.021,0.453 -330.327,-60.667c-112.734,76.566 -229.033,158.753 -327.713,213.161c-25.459,27.418 -55.158,50.541 -86.642,70.604c-26.308,16.765 -33.325,19.386 -57.146,35.818c-38.477,26.544 -103.273,104.33 -85.097,142.701c6.773,14.3 -5.71,28.436 -11.877,28.095c-27.125,-1.502 -63.714,9.752 -70.263,-0l-2.194,-44.725c71.021,-101.058 149.384,-200.547 266.663,-291.726l110.015,-120.356l155.789,-222.086c19.717,-93.499 16.695,-182.853 -73.102,-256.385l-432.308,1.982c-5.155,5.07 -14.738,7.827 -26.173,9.617c-29.369,3.667 -58.146,4.329 -86.275,1.691c6.205,-8.353 14.179,-15.542 34.537,-14.583l2.263,-9.499c-69.809,15.55 -161.006,-8.667 -101.605,-30.691l278.228,-4.045c60.338,-18.819 148.387,-16.072 235.856,-13.777c39.714,-21.048 82.585,-29.997 127.387,-31.544l90.4,-5.368l3.701,-27.109c-25.792,8.971 -54.485,-18.258 -73.411,-58.501l2.332,-127.415Z" style="stroke:#000;stroke-width:4.17px;"/><path id="Arc" d="M-153.26,-780.912l36.653,45.317c65.426,-45.539 159.413,-72.298 261.52,-115.891c91.384,-39.016 188.609,-94.986 288.475,-133.551l354.012,-304.135c-22.681,-75.381 -41.698,-148.516 -1.772,-185.544c14.099,-31.318 18.036,-63.293 28.955,-80.574c30.15,-47.717 55.85,-30.564 54,60.645c24.397,19.595 24.551,68.955 60.779,58.279c12.505,-3.686 36.756,2.705 26.975,7.732c-10.428,5.359 -16.802,35.89 -0.558,32.21c23.031,-5.217 23.96,28.783 45.342,27.641c17.714,-0.946 5.484,27.172 22.865,34.785c37.762,16.541 -0.901,39.403 4.274,47.392c26.139,85.55 237.548,326.278 492.261,603.276c-0,-0 22.361,36.388 -5.835,95.905c-26.619,56.186 -204.51,259.572 -456.906,428.791c-80.931,54.26 -175.397,90.245 -267.34,135.969c-29.164,32.871 -75.517,42.746 -131.73,39.432c-109.381,7.612 -191.661,7.153 -225.322,-7.786l-284.889,-5.117l-145.497,-131.66c-83.099,-38.433 -143.807,-109.725 -146.279,-219.415c-1.112,-49.343 -2.576,-130.204 -31.998,-182.515c-28.671,-50.975 -75.342,-81.554 -97.933,-128.539c-27.275,5.78 -62.58,47.099 -86.386,37.405c-23.075,-9.396 -34.749,-69.364 -54.96,-91.534c-11.426,-11.054 -44.235,4.512 -49.52,-11.06c-7.863,-23.165 15.822,-73.659 17.229,-103.643c-12.275,-28.391 -31.242,-51.089 -39.546,-80.121c-19.29,-67.436 -8.768,-116.445 41.304,-150.681c40.633,-27.782 84.967,-52.936 138.057,-61.161c46.149,-7.149 142.284,33.907 144.083,29.649c3.227,-7.638 14.012,-68.399 79.184,-47.785c34.924,11.046 83.169,90.291 67.121,139.739c-10.6,32.663 -67.187,17.083 -62.693,26.38c20.403,39.994 12.318,84.353 6.085,117.363c-11.843,62.723 -50.011,98.436 -80.01,72.802l-12.998,-16.071c4.062,6.857 8.436,12.174 12.998,16.071Zm459.327,381.861c-37.711,-53.501 -138.024,-232.11 -136.352,-245.301c3.84,-30.296 56.08,-65.3 111.997,-100.771c58.028,-36.809 135.105,-68.482 198.111,-110.794c118.255,-79.417 210.636,-163.361 281.75,-203.676c104.98,-49.745 186.118,-31.008 176.492,38.865c24.511,75.232 64.721,93.015 82.948,151.8c38.411,123.887 95.93,225.584 164.51,257.503l-333.514,196.73c-10.653,-1.695 -139.472,-23.132 -248.307,22.15c-71.01,29.545 -115.893,115.533 -170.314,118.07c-29.16,1.358 -83.234,-62.026 -127.321,-124.576Z" style="stroke:#000;stroke-width:4.17px;"/></svg>