<?xml version="1.0" encoding="UTF-8" standalone="no"?><!DOCTYPE svg PUBLIC "-//W3C//DTD SVG 1.1//EN" "http://www.w3.org/Graphics/SVG/1.1/DTD/svg11.dtd"><svg width="100%" height="100%" viewBox="0 0 1490 1310" version="1.1" xmlns="http://www.w3.org/2000/svg" xmlns:xlink="http://www.w3.org/1999/xlink" xml:space="preserve" xmlns:serif="http://www.serif.com/" style="fill-rule:evenodd;clip-rule:evenodd;stroke-linecap:round;stroke-linejoin:round;stroke-miterlimit:1.5;"><path id="Warior-2" serif:id="Warior 2" d="M685.76,58.911c23.548,-48.872 84.347,-70.721 133.58,-47.551c8.697,4.093 36.676,22.339 38.724,33.683c3.885,21.522 -1.494,197.07 -1.821,201.037l-33.481,0.432l-0.766,15.563l28.53,20.506l205.059,0.041l312.17,-14.551c65.998,-13.798 124.74,-23.714 119.365,0.684l-51.417,10.868l-25.472,28.857l-99.033,-1.762c-18.771,-4.578 -53.528,-10.17 -58.742,3.177c-1.752,4.483 -301.388,41.673 -299.927,48.224l-10.712,73.766l-25.923,27.917l-3.253,163.068l-13.938,8.169l-0.424,34.712c130.198,52.688 248.664,106.251 339.487,161.874l0.389,102.755l-7.186,282.391c54.117,38.605 99.125,55.523 139.054,60.353c4.006,5.893 4.404,10.302 1.195,13.226l-155.99,1.004c-1.219,4.615 -10.091,2.498 -14.319,0.281c-11.322,-5.937 -9.033,-11.232 -10.02,-21.346c-3.893,-39.864 -8.387,-56.072 -17.529,-100.192c-18.37,-88.657 -22.632,-87.882 -28.925,-174.544c-1.458,-20.085 -2.113,-40.229 -2.406,-60.365c-0.278,-19.155 0.207,-38.317 0.693,-57.469c-121.221,4.038 -228.021,0.453 -330.327,-60.667c-112.734,76.566 -229.033,158.753 -327.713,213.161c-25.459,27.418 -55.158,50.541 -86.642,70.604c-26.308,16.765 -33.325,19.386 -57.146,35.818c-38.477,26.544 -103.273,104.33 -85.097,142.701c6.773,14.3 -5.71,28.436 -11.877,28.095c-27.125,-1.502 -63.714,9.752 -70.263,-0l-2.194,-44.725c71.021,-101.058 149.384,-200.547 266.663,-291.726l110.015,-120.356l155.789,-222.086c19.717,-93.499 16.695,-182.853 -73.102,-256.385l-432.308,1.982c-5.155,5.07 -14.738,7.827 -26.173,9.617c-29.369,3.667 -58.146,4.329 -86.275,1.691c6.205,-8.353 14.179,-15.542 34.537,-14.583l2.263,-9.499c-69.809,15.55 -161.006,-8.667 -101.605,-30.691l278.228,-4.045c60.338,-18.819 148.387,-16.072 235.856,-13.777c39.714,-21.048 82.585,-29.997 127.387,-31.544l90.4,-5.368l3.701,-27.109c-25.792,8.971 -54.485,-18.258 -73.411,-58.501l2.332,-127.415Z" style="stroke:#000;stroke-width:4.17px;"/></svg>