<?xml version="1.0" encoding="UTF-8" standalone="no"?><!DOCTYPE svg PUBLIC "-//W3C//DTD SVG 1.1//EN" "http://www.w3.org/Graphics/SVG/1.1/DTD/svg11.dtd"><svg width="100%" height="100%" viewBox="0 0 1187 1565" version="1.1" xmlns="http://www.w3.org/2000/svg" xmlns:xlink="http://www.w3.org/1999/xlink" xml:space="preserve" xmlns:serif="http://www.serif.com/" style="fill-rule:evenodd;clip-rule:evenodd;stroke-linecap:round;stroke-linejoin:round;stroke-miterlimit:1.5;"><path id="Warior-1" serif:id="Warior 1" d="M572.443,22.037l1.635,146.961l16.669,147.877l79.165,58.422l-2.547,94.086l-14.309,27.413l-0.232,25.669l-13.048,11.645l-33.546,1.719l0.022,32.214l113.969,124.004c5.246,17.399 3.735,34.234 -0.849,50.813c-7.764,9.943 -16.035,18.704 -26.26,22.906l-0.239,98.553c-5.067,-0.207 -9.669,2.073 -12.275,14.993l-1.588,58.938l-5.729,2.171l-0.116,30.008c122.706,35.679 204.281,62.284 287.769,89.311c16.89,6.358 33.344,14.759 45.913,41.386l28.428,325.102c12.153,14.561 48.418,60.706 88.073,63.255c48.888,3.141 67.111,23.735 58.964,31.742l-186.417,-0.439l2.248,-112.913c-56.133,-107.527 -88.792,-205.184 -77.505,-254.373c-111.953,-12.406 -225.038,-0.025 -316.052,-41.105c-56.181,48.759 -134.833,97.02 -254.015,144.384l-266.097,178.573l6.155,58.487l57.992,68.817l-64.861,-0.447c-0,-0 -80.629,-92.474 -81.651,-98.235c-2.405,-13.559 163.617,-183.851 204.941,-203.709c21.387,-10.277 114.711,-64.816 115.142,-81.237c0.548,-20.868 122.44,-131.099 122.757,-134.362c2.94,-30.189 65.742,-114.567 85.225,-126.673l2.073,-110.474l-26.86,-38.044l-0.987,-75.353l-6.692,-3.755l0.424,-59.604l7.313,-3.513l-1.435,-41.769l-15.728,-2.901l-12.03,13.868l-9.746,-0.358l0.113,-12.859l23.934,-23.334l1.416,-71.985c-10.986,-2.997 -19.469,-16.006 -26.359,-35.382l0.687,-95.955c2.931,-12.576 12.871,-21.147 27.267,-27.171l39.223,-1.159l-0.96,-194.412l-12.28,-9.295c-0,-0 -4.677,-102.507 -2.763,-112.299c4.647,-23.765 48.13,0.378 55.659,9.798Z" style="stroke:#000;stroke-width:4.17px;"/></svg>