<svg width="88" height="78" viewBox="0 0 88 78" fill="none" xmlns="http://www.w3.org/2000/svg">
<path fill-rule="evenodd" clip-rule="evenodd" d="M40.4117 3.43537C41.8007 0.552543 45.3871 -0.736269 48.2912 0.630465C48.8042 0.8719 50.4546 1.94818 50.5754 2.61733C50.8046 3.88686 50.4873 14.2419 50.468 14.476L48.493 14.5014L48.4479 15.4195L50.1308 16.629L62.2266 16.6315L80.6407 15.7731C84.5337 14.9592 87.9987 14.3743 87.6817 15.8135L84.6487 16.4546L83.1462 18.1568L77.3045 18.0528C76.1973 17.7828 74.1471 17.4529 73.8395 18.2402C73.7362 18.5047 56.0615 20.6984 56.1476 21.0848L55.5158 25.4361L53.9866 27.0828L53.7948 36.7018L52.9726 37.1836L52.9476 39.2312C60.6276 42.3391 67.6156 45.4986 72.973 48.7797L72.9959 54.8409L72.572 71.4984C75.7643 73.7756 78.4192 74.7735 80.7745 75.0584C81.0108 75.4061 81.0342 75.6661 80.845 75.8386L71.6435 75.8978C71.5716 76.1701 71.0483 76.0452 70.7989 75.9144C70.131 75.5642 70.2661 75.2519 70.2078 74.6553C69.9782 72.3038 69.7131 71.3477 69.1739 68.7452C68.0903 63.5156 67.8389 63.5613 67.4677 58.4493C67.3816 57.2646 67.343 56.0763 67.3257 54.8886C67.3093 53.7587 67.3379 52.6284 67.3666 51.4986C60.2161 51.7368 53.9163 51.5254 47.8815 47.9201C41.2317 52.4365 34.3715 57.2845 28.5506 60.4938C27.0489 62.1112 25.297 63.4751 23.4399 64.6586C21.888 65.6475 21.4741 65.8021 20.069 66.7714C17.7993 68.3371 13.9772 72.9255 15.0493 75.1889C15.4489 76.0324 14.7125 76.8663 14.3488 76.8462C12.7487 76.7576 10.5904 77.4214 10.2041 76.8462L10.0747 74.208C14.2641 68.2468 18.8865 62.3782 25.8044 56.9999L32.2939 49.9004L41.4835 36.8001C42.6465 31.2849 42.4683 26.0142 37.1714 21.6767L11.6707 21.7936C11.3667 22.0927 10.8014 22.2553 10.1269 22.3609C8.39447 22.5772 6.69699 22.6162 5.03774 22.4606C5.40376 21.9679 5.87412 21.5439 7.07498 21.6004L7.20847 21.0401C3.09063 21.9574 -2.28883 20.5289 1.21507 19.2297L17.627 18.9911C21.1861 17.881 26.3799 18.0431 31.5395 18.1785C33.8821 16.9369 36.4109 16.409 39.0537 16.3178L44.3861 16.0011L44.6044 14.402C43.083 14.9312 41.3905 13.3251 40.2741 10.9512L40.4117 3.43537Z" fill="black"/>
</svg>
