<svg width="59" height="78" viewBox="0 0 59 78" fill="none" xmlns="http://www.w3.org/2000/svg">
<path fill-rule="evenodd" clip-rule="evenodd" d="M28.2252 1.06802L28.3059 8.31921L29.1283 15.6156L33.0344 18.4982L32.9087 23.1405L32.2027 24.493L32.1912 25.7596L31.5474 26.3341L29.8923 26.419L29.8933 28.0084L35.5167 34.1269C35.7755 34.9854 35.701 35.816 35.4748 36.6341C35.0917 37.1246 34.6836 37.5569 34.1791 37.7643L34.1673 42.6269C33.9173 42.6167 33.6902 42.7292 33.5616 43.3667L33.4833 46.2748L33.2006 46.3819L33.1949 47.8625C39.2493 49.6229 43.2743 50.9357 47.3937 52.2692C48.227 52.5829 49.0389 52.9974 49.659 54.3112L51.0617 70.352C51.6613 71.0705 53.4507 73.3473 55.4073 73.4731C57.8195 73.6281 58.7186 74.6442 58.3166 75.0393L49.1187 75.0176L49.2296 69.4464C46.4599 64.1409 44.8485 59.3224 45.4054 56.8954C39.8816 56.2833 34.3019 56.8942 29.8111 54.8672C27.0391 57.273 23.1584 59.6543 17.2778 61.9913L4.14837 70.8022L4.45206 73.688L7.31343 77.0835L4.11314 77.0614C4.11314 77.0614 0.134832 72.4987 0.084406 72.2144C-0.0342588 71.5454 8.15741 63.1431 10.1964 62.1633C11.2516 61.6562 15.8563 58.9652 15.8776 58.155C15.9046 57.1253 21.9189 51.6864 21.9345 51.5254C22.0796 50.0359 25.1783 45.8726 26.1396 45.2753L26.2419 39.8244L24.9166 37.9473L24.8679 34.2293L24.5377 34.044L24.5586 31.1031L24.9194 30.9298L24.8486 28.8688L24.0726 28.7257L23.479 29.41L22.9982 29.3923L23.0037 28.7578L24.1847 27.6065L24.2545 24.0547C23.7125 23.9068 23.2939 23.2649 22.9539 22.3089L22.9878 17.5744C23.1325 16.9539 23.6229 16.531 24.3332 16.2338L26.2685 16.1766L26.2212 6.58413L25.6152 6.12551C25.6152 6.12551 25.3845 1.06773 25.4789 0.584581C25.7082 -0.588004 27.8537 0.603232 28.2252 1.06802Z" fill="black"/>
</svg>
